<?xml version="1.0" encoding="utf-8"?>
<!-- Natural Earth 110m land — public domain (naturalearthdata.com) -->
<svg xmlns="http://www.w3.org/2000/svg" viewBox="0 0 1400 700" width="1400" height="700">
  <path d="M468.3,661.3L467.2,663.2L466.0,665.0L457.9,664.5L449.2,664.7L444.3,663.4L444.3,663.2L442.2,662.1L451.0,662.3L459.3,662.6L462.2,661.0L464.3,659.7L468.3,661.3Z M80.9,659.2L73.4,659.7L68.3,658.3L66.0,656.9L65.9,656.7L63.3,655.6L63.3,655.6L65.7,654.2L72.9,654.8L76.8,656.0L79.8,657.4L80.9,659.2Z M524.4,653.5L529.2,655.2L530.9,657.6L531.3,659.2L531.5,661.2L525.5,662.4L519.1,663.4L511.8,664.3L503.7,665.1L494.5,664.9L489.4,663.6L490.0,662.0L498.3,660.9L501.7,659.6L504.1,657.9L505.9,656.5L508.3,655.1L510.8,653.5L510.8,653.5L512.7,653.5L518.5,652.7L524.4,653.5Z M228.6,635.8L233.6,636.4L238.3,635.8L236.1,637.1L232.4,638.1L227.0,637.8L223.1,636.4L223.1,636.4L224.0,635.2L228.6,635.8Z M211.7,635.8L217.7,637.3L215.4,637.1L210.3,636.8L205.0,635.7L205.0,635.7L207.8,634.8L211.7,635.8Z M315.1,629.7L319.3,630.3L323.6,629.8L325.9,632.0L322.8,631.7L318.1,631.9L313.3,631.7L308.1,632.0L304.1,631.2L302.0,629.6L302.0,629.6L304.5,628.9L309.4,629.4L315.1,629.7Z M433.8,625.9L434.3,627.7L433.6,629.2L432.5,630.7L427.9,631.2L423.6,632.0L418.5,631.9L420.4,630.4L415.8,630.9L411.5,631.4L408.5,630.3L408.3,628.7L412.5,627.2L412.5,627.2L415.2,626.7L419.7,626.9L420.9,624.9L421.1,623.4L421.0,620.3L423.2,618.5L426.8,617.9L428.8,619.3L429.8,620.8L431.4,622.5L432.7,624.2L433.8,625.9Z M472.1,599.5L470.4,600.3L467.5,599.7L464.3,600.1L461.6,601.0L458.8,602.0L456.9,603.1L456.4,604.7L456.6,606.1L458.4,607.4L455.8,608.3L452.1,608.6L450.0,609.9L447.7,611.1L445.2,612.8L444.6,614.3L446.0,615.9L448.1,617.1L451.3,618.0L454.2,619.2L455.8,620.7L456.7,622.2L457.8,623.7L459.6,625.0L460.8,626.5L461.3,630.0L462.5,631.5L462.8,633.0L464.0,634.5L463.4,636.6L461.3,638.2L459.0,639.5L453.9,640.0L452.1,641.4L449.7,642.7L443.9,644.1L438.7,644.7L433.8,645.6L428.6,646.4L425.4,648.0L419.2,648.2L412.3,648.0L406.2,648.3L399.6,648.3L400.8,649.9L406.8,650.5L411.1,651.6L413.6,653.0L409.2,654.2L402.5,653.8L397.0,654.8L396.7,656.4L396.6,657.9L401.1,659.2L402.0,660.7L406.9,662.1L415.2,662.7L422.2,663.8L427.7,665.0L434.8,666.2L444.5,666.8L454.0,667.9L460.6,669.1L467.9,670.4L471.7,672.2L473.6,673.6L478.3,672.3L484.7,671.1L491.5,669.9L499.6,668.9L506.5,667.8L516.2,667.8L525.7,668.3L533.5,669.2L536.0,667.5L541.4,666.4L551.3,666.3L559.0,665.5L566.3,664.6L574.3,664.1L583.0,663.4L589.0,662.4L586.2,661.1L584.6,659.7L584.6,658.2L577.0,658.4L569.0,659.0L561.4,659.0L560.3,657.5L560.9,654.7L562.6,653.8L568.2,652.9L574.7,652.0L579.5,650.8L584.2,649.7L587.7,648.2L593.0,647.5L598.3,647.0L600.9,646.7L606.9,646.5L612.7,646.0L617.5,645.2L622.2,644.3L626.4,643.4L631.9,642.2L635.3,640.9L638.9,639.7L640.1,638.2L636.0,637.3L637.3,635.7L639.9,634.5L644.0,633.7L648.2,632.8L652.2,631.6L655.2,630.0L657.1,628.2L660.0,627.1L664.6,627.4L666.5,628.7L671.2,628.8L671.3,627.4L673.3,625.8L677.5,626.2L678.5,627.7L683.1,627.9L688.1,627.2L693.0,626.8L697.4,627.0L699.1,628.6L703.4,627.3L707.3,626.6L711.8,626.1L716.1,625.5L720.1,624.6L724.4,624.0L727.8,623.2L730.1,621.8L733.0,622.8L737.0,622.3L739.9,624.1L742.1,625.5L746.5,624.7L748.2,623.2L752.2,622.1L757.3,622.3L758.8,623.8L762.0,622.3L766.2,621.9L770.8,621.7L774.9,621.8L779.2,622.3L783.4,622.5L785.3,623.8L787.8,624.9L792.0,624.2L796.6,624.1L801.0,624.1L805.4,624.0L809.2,623.5L813.4,623.0L816.8,622.0L820.4,621.3L824.4,620.9L827.4,619.8L829.5,617.7L831.7,616.4L835.8,617.0L837.3,618.4L840.6,619.3L844.7,619.0L847.4,620.4L850.3,621.4L854.3,620.4L855.6,618.8L859.1,618.1L863.2,616.8L867.0,616.2L871.6,615.5L874.6,614.6L877.8,613.7L880.8,612.9L884.5,613.4L888.0,612.0L890.5,610.9L894.2,611.0L897.4,610.1L898.1,608.7L901.4,607.6L904.6,606.9L908.5,606.3L912.1,606.0L915.5,606.2L919.2,606.6L922.3,607.6L922.7,609.3L926.1,610.6L928.5,611.7L933.1,612.1L935.7,613.2L938.9,614.3L942.6,614.5L945.7,613.7L949.1,612.1L952.7,613.0L956.6,613.4L960.2,613.9L964.0,614.2L967.9,614.2L971.1,618.2L971.0,619.2L970.5,621.0L966.8,622.0L963.7,623.4L964.2,624.9L968.6,624.9L968.1,626.4L966.1,627.8L964.2,629.4L967.2,630.6L971.7,631.0L976.2,630.3L978.3,628.8L979.6,627.4L981.8,626.2L984.2,625.0L985.2,623.6L987.3,621.7L989.7,621.4L994.1,621.2L998.0,620.7L1002.0,620.1L1003.9,618.6L1005.0,617.2L1007.7,615.7L1011.5,614.7L1014.7,614.0L1016.9,612.7L1019.1,612.0L1021.9,611.4L1025.8,611.8L1029.3,611.4L1033.1,610.9L1037.4,611.1L1040.2,610.1L1042.2,607.5L1043.6,608.5L1045.4,610.4L1048.7,611.1L1052.5,611.4L1056.2,611.0L1060.1,611.3L1063.8,611.4L1066.2,611.0L1069.5,611.2L1072.5,612.1L1076.0,611.5L1080.2,611.5L1083.8,611.0L1087.8,611.5L1090.4,610.2L1092.4,608.9L1095.0,607.9L1099.9,605.0L1102.4,605.5L1105.4,606.6L1108.0,607.9L1112.9,610.3L1116.7,610.4L1120.3,610.4L1124.5,609.9L1128.7,609.4L1131.9,608.3L1134.6,607.2L1138.9,607.0L1141.8,606.2L1144.8,606.9L1146.8,608.2L1149.6,609.4L1153.8,609.2L1156.5,610.2L1161.1,611.2L1166.0,611.6L1170.1,611.3L1173.1,610.1L1175.7,608.9L1179.2,608.5L1182.7,609.1L1186.7,609.5L1190.4,608.9L1193.9,608.9L1197.3,609.2L1200.9,609.6L1204.4,608.9L1208.6,608.3L1212.6,608.2L1217.0,608.2L1220.6,607.8L1224.1,607.5L1225.1,605.6L1225.3,604.0L1227.7,605.0L1228.4,606.8L1229.7,608.4L1231.3,609.7L1234.6,610.4L1239.0,610.2L1244.1,610.1L1247.6,609.8L1252.7,609.8L1256.4,609.8L1261.5,609.9L1265.8,610.2L1268.5,611.4L1267.8,612.9L1270.3,614.0L1274.5,615.0L1278.8,615.9L1283.8,616.6L1289.1,617.2L1293.1,617.8L1297.5,617.9L1300.0,616.6L1303.4,617.7L1306.4,618.9L1309.8,619.8L1314.5,620.2L1319.0,620.7L1320.9,622.2L1325.4,623.1L1328.3,624.5L1332.7,625.1L1337.2,625.0L1341.4,625.2L1346.0,625.2L1350.6,625.5L1355.0,626.0L1359.0,626.9L1363.1,627.7L1365.8,628.8L1365.3,630.3L1363.3,631.7L1361.5,633.5L1360.2,634.8L1358.3,636.4L1353.2,637.0L1351.0,638.4L1345.9,639.3L1344.2,640.8L1341.5,642.2L1338.7,643.5L1337.1,645.1L1336.1,646.5L1335.7,648.3L1335.8,649.7L1338.0,651.2L1338.8,652.7L1340.7,654.0L1347.9,654.6L1349.4,656.3L1342.4,656.9L1336.5,657.7L1329.1,657.9L1325.8,660.1L1325.1,661.9L1323.5,663.3L1321.4,664.8L1326.6,666.1L1328.6,667.7L1331.9,669.1L1336.6,670.4L1342.0,671.6L1347.9,672.9L1356.8,674.1L1358.8,676.0L1370.0,676.8L1370.7,677.1L1373.6,678.3L1384.4,677.3L1393.3,678.5L1400.0,679.4L1400.0,700.0L0.0,700.0L0.0,679.4L0.2,679.5L3.7,677.2L10.7,678.4L11.1,678.3L12.2,678.0L13.5,677.6L14.7,677.2L15.2,677.1L15.8,677.1L16.2,677.1L21.8,678.7L26.8,677.1L27.7,676.9L39.1,676.2L42.8,677.1L44.6,677.6L50.5,678.9L61.5,679.9L70.3,681.1L85.3,682.0L96.5,680.9L113.0,681.7L122.4,682.9L132.7,681.8L143.5,680.7L144.3,678.9L129.0,678.7L116.4,677.8L113.2,676.3L102.7,675.5L103.4,673.7L104.9,672.1L106.3,670.7L105.5,669.1L99.1,668.0L96.1,666.6L90.1,665.4L99.5,665.6L108.5,665.0L114.1,666.3L121.1,665.2L127.5,663.7L130.6,662.4L129.2,660.8L124.2,659.8L118.5,658.6L110.5,658.4L103.5,657.9L95.9,657.5L93.4,656.0L88.4,654.8L85.4,653.4L84.1,649.0L86.0,649.4L89.5,650.6L95.9,650.2L102.1,649.7L105.3,651.4L111.5,651.0L116.7,650.2L121.5,649.1L126.0,647.8L131.8,647.4L131.7,646.0L130.3,644.5L131.4,643.1L136.5,642.5L138.7,643.8L144.7,643.0L149.2,642.0L154.7,641.9L160.0,641.5L165.3,640.6L169.4,639.8L174.2,639.0L177.2,639.2L179.9,639.5L185.7,639.0L190.8,639.6L196.2,639.6L201.3,639.0L206.5,639.4L212.3,639.8L217.7,639.6L223.4,639.7L229.2,639.8L234.5,639.6L238.5,638.5L243.2,637.9L248.0,638.7L252.7,638.0L256.9,636.7L259.4,637.9L260.8,639.3L263.3,640.6L267.3,639.4L272.0,640.9L277.2,641.3L281.7,642.4L287.2,642.2L292.1,641.5L298.0,641.6L303.3,642.2L308.6,642.8L310.7,641.2L308.1,639.9L306.2,638.5L301.2,638.2L299.0,636.7L298.2,635.3L296.8,632.4L299.8,632.9L304.9,633.2L309.9,632.9L314.5,633.5L318.4,634.7L320.1,636.1L325.4,636.3L330.4,635.8L335.7,635.0L340.5,634.5L344.5,635.4L349.7,635.1L353.0,632.2L356.1,633.9L360.6,634.6L365.5,634.2L368.7,635.8L373.8,635.9L378.5,636.4L383.2,637.2L386.2,635.8L387.7,634.4L391.6,635.9L397.0,635.5L400.9,636.4L403.6,637.7L408.8,637.3L412.8,636.4L416.8,635.4L421.5,634.9L427.0,634.5L431.9,633.9L435.7,633.1L438.0,631.9L438.9,630.2L438.5,628.6L437.2,627.1L435.9,625.5L434.7,624.0L433.7,622.6L433.4,621.1L433.8,619.6L435.6,618.2L437.2,616.6L437.8,615.0L437.0,613.4L436.6,611.8L438.5,610.1L440.6,608.9L443.1,607.5L445.8,606.3L448.9,605.1L450.4,603.4L452.6,602.4L455.0,601.4L458.7,601.2L461.2,599.9L463.9,599.2L467.1,598.7L469.9,597.7L472.1,596.5L475.2,596.1L477.5,597.0L476.0,598.3L472.1,599.5Z M436.5,559.4L441.6,561.7L447.0,562.7L445.3,564.7L441.6,564.9L439.6,563.5L438.3,565.1L435.0,566.3L430.8,565.8L427.9,564.7L423.9,564.1L419.0,561.9L415.0,559.8L409.6,555.5L412.9,556.3L418.3,558.9L423.5,560.3L425.5,558.5L426.7,555.8L430.3,554.2L433.1,554.7L433.1,554.7L434.6,556.5L436.5,559.4Z M472.3,548.7L475.4,550.5L474.2,551.8L469.0,553.0L467.2,551.6L463.9,553.4L462.0,551.6L466.7,549.3L470.0,550.3L472.3,548.7Z M973.3,543.3L967.3,543.6L967.2,541.5L967.8,539.9L968.1,539.1L970.6,540.3L974.3,540.8L974.4,541.5L973.3,543.3Z M1265.4,508.6L1269.2,510.0L1271.3,509.4L1274.3,508.7L1276.7,509.0L1277.0,513.6L1275.6,514.9L1275.2,518.0L1273.9,517.0L1271.2,519.7L1270.4,519.5L1268.0,519.4L1265.6,516.0L1265.0,513.5L1262.8,510.1L1262.9,508.3L1265.4,508.6Z M1372.9,509.1L1373.7,510.7L1376.5,509.2L1377.6,510.8L1377.6,512.4L1376.2,514.2L1373.6,517.1L1371.7,518.7L1373.1,520.5L1370.1,520.6L1366.8,522.1L1365.7,524.6L1363.5,528.5L1360.5,530.3L1358.5,531.4L1354.9,531.3L1352.4,530.0L1348.2,529.7L1347.5,528.3L1349.6,525.4L1354.5,521.6L1357.0,520.9L1359.8,519.4L1363.2,517.3L1365.5,515.3L1367.2,512.4L1368.7,511.4L1369.3,509.3L1372.0,507.5L1372.9,509.1Z M1379.0,490.6L1381.9,494.7L1381.9,492.0L1383.7,493.1L1384.3,496.0L1387.4,497.3L1390.0,497.6L1392.3,496.1L1394.2,496.6L1393.3,500.0L1392.1,502.3L1389.1,502.2L1388.1,503.4L1388.5,505.1L1387.9,505.8L1386.4,507.9L1384.5,510.6L1381.5,512.1L1380.8,511.1L1379.2,510.5L1381.4,507.3L1380.2,505.2L1376.0,503.6L1376.1,502.2L1378.9,500.9L1379.6,497.9L1379.4,495.4L1377.8,492.8L1377.9,492.1L1376.0,490.5L1373.0,487.0L1371.4,484.3L1372.8,484.0L1374.9,486.1L1377.9,487.1L1379.0,490.6Z M1349.9,436.2L1348.4,437.1L1346.3,436.1L1343.5,434.3L1341.0,432.2L1338.4,429.5L1337.9,428.2L1339.6,428.2L1341.7,429.6L1343.5,430.9L1344.7,432.0L1347.9,434.4L1349.9,436.2Z M1393.7,417.4L1395.0,418.6L1394.4,420.6L1392.0,421.1L1389.8,420.6L1389.4,418.9L1390.9,417.6L1392.7,418.1L1393.7,417.4Z M1397.5,415.3L1395.0,416.2L1394.5,414.7L1396.5,413.9L1397.7,413.7L1400.0,412.5L1400.0,414.4L1397.5,415.3Z M0.3,414.2L0.0,414.4L0.0,412.5L0.8,412.3L0.3,414.2Z M1352.7,414.0L1351.4,414.5L1350.1,412.8L1350.3,411.8L1352.7,414.0Z M1349.9,408.1L1350.5,411.2L1349.4,410.7L1348.6,410.9L1348.1,409.9L1348.0,406.9L1349.9,408.1Z M894.7,402.7L895.3,407.4L896.3,409.2L895.9,411.1L895.2,412.2L893.9,409.9L893.2,411.1L893.9,414.0L893.6,415.6L892.5,416.5L892.2,419.8L890.7,424.4L888.8,429.7L886.4,437.1L884.9,442.5L883.2,447.0L880.0,447.9L876.6,449.6L874.4,448.6L871.3,447.2L870.2,445.1L869.9,441.7L868.6,438.6L868.2,435.8L868.9,433.0L870.7,432.3L870.7,431.0L872.6,428.1L872.9,425.6L872.0,423.7L871.3,421.3L871.0,417.7L872.3,415.5L872.8,413.1L874.8,412.9L877.0,412.1L878.4,411.4L880.1,411.4L882.3,409.2L885.5,406.8L886.7,404.8L886.2,403.1L887.8,403.6L890.0,400.9L890.0,398.6L891.3,396.8L892.7,398.5L893.7,400.1L894.7,402.7Z M1258.3,403.5L1259.7,406.6L1262.2,405.1L1263.5,406.8L1265.3,408.3L1264.9,410.0L1265.8,413.3L1266.4,415.3L1267.3,415.7L1268.4,419.1L1268.0,421.1L1269.3,423.7L1273.5,425.8L1276.2,427.6L1278.9,429.3L1278.3,430.2L1280.6,432.7L1282.1,436.9L1283.6,436.0L1285.2,437.7L1286.2,437.1L1286.8,441.2L1289.6,443.6L1291.4,445.1L1294.4,448.3L1295.5,451.4L1295.6,453.6L1295.4,456.0L1297.2,459.3L1297.0,462.8L1296.3,464.6L1295.3,468.0L1295.3,470.3L1294.6,473.0L1292.9,476.6L1290.0,478.5L1288.6,481.5L1287.3,483.4L1286.1,486.8L1284.6,488.7L1283.6,491.6L1283.1,494.3L1283.3,495.5L1281.1,496.9L1276.7,497.0L1273.2,498.6L1271.4,500.1L1269.0,501.8L1265.8,500.1L1263.4,499.4L1264.0,497.4L1261.9,498.1L1258.5,500.9L1255.1,499.9L1252.9,499.3L1250.7,499.0L1246.9,497.9L1244.4,495.5L1243.7,492.5L1242.8,490.5L1240.9,489.0L1237.1,488.5L1238.4,486.6L1237.5,483.7L1235.6,486.4L1232.1,487.1L1234.1,485.0L1234.7,482.7L1236.2,480.8L1235.9,477.9L1232.8,481.3L1230.3,482.6L1228.8,485.7L1225.8,484.1L1225.9,482.0L1223.5,479.2L1221.4,477.7L1222.2,476.8L1217.2,474.5L1214.5,474.4L1210.7,472.5L1203.8,472.9L1198.7,474.2L1194.3,475.5L1190.6,475.3L1186.5,477.3L1183.1,478.2L1182.3,480.2L1180.9,481.8L1177.6,481.9L1175.2,482.2L1171.7,481.5L1168.9,482.0L1166.3,482.1L1163.9,484.2L1162.8,484.0L1160.9,485.1L1159.0,486.4L1156.1,486.2L1153.5,486.2L1149.4,483.7L1147.3,483.0L1147.4,480.8L1149.3,480.2L1150.0,479.3L1149.9,477.9L1150.3,475.2L1149.9,472.9L1147.8,469.0L1147.2,466.8L1147.4,464.6L1145.8,462.0L1145.7,460.9L1144.0,459.3L1143.5,456.3L1141.3,453.2L1140.8,451.6L1142.5,453.2L1141.2,449.6L1143.1,450.8L1144.2,452.3L1144.2,450.3L1142.2,447.2L1141.9,446.0L1141.0,444.8L1141.4,442.6L1142.2,441.6L1142.7,439.7L1142.3,437.4L1143.9,434.6L1144.2,437.6L1145.9,434.9L1149.0,433.6L1150.9,431.9L1153.9,430.5L1155.6,430.2L1156.7,430.7L1159.8,429.2L1162.1,428.8L1162.7,427.9L1163.8,427.6L1165.9,427.7L1170.0,426.5L1172.1,424.8L1173.1,422.7L1175.4,420.8L1175.6,419.2L1175.7,417.1L1178.4,413.8L1180.0,417.2L1181.7,416.4L1180.3,414.5L1181.5,412.7L1183.2,413.5L1183.7,410.5L1185.8,408.6L1186.8,407.1L1188.7,406.4L1188.8,405.3L1190.5,405.8L1190.6,404.8L1192.3,404.3L1194.1,403.7L1197.0,405.5L1199.2,407.8L1201.6,407.9L1204.1,408.2L1203.3,406.1L1205.1,403.0L1206.9,401.9L1206.3,401.0L1208.0,398.8L1210.3,397.4L1212.3,397.8L1215.6,397.1L1215.5,395.1L1212.7,393.8L1214.7,393.3L1217.3,394.2L1219.4,395.8L1222.6,396.8L1223.8,396.4L1226.2,397.6L1228.4,396.5L1229.9,396.9L1230.8,396.1L1232.6,398.0L1231.6,400.1L1230.1,401.7L1228.7,401.8L1229.2,403.4L1228.0,405.3L1226.7,407.2L1226.9,408.3L1230.0,410.5L1233.0,411.7L1235.0,413.1L1237.8,415.4L1238.9,415.4L1241.0,416.4L1241.6,417.6L1245.3,418.9L1247.8,417.5L1248.6,415.5L1249.4,413.7L1249.9,411.6L1251.1,408.5L1250.5,406.6L1250.8,405.5L1250.4,403.3L1250.9,400.3L1251.6,399.6L1251.0,398.3L1251.9,396.2L1252.7,394.1L1252.8,392.9L1254.2,391.5L1255.3,393.4L1255.6,395.8L1256.6,396.3L1256.7,397.9L1258.1,399.9L1258.4,402.1L1258.3,403.5Z M1330.5,390.8L1331.6,392.1L1328.8,392.1L1327.4,389.7L1329.7,390.6L1330.5,390.8Z M1169.4,389.8L1167.8,389.9L1162.7,387.2L1166.3,386.4L1168.3,387.6L1169.7,388.8L1169.4,389.8Z M1325.5,388.4L1324.0,388.5L1321.6,388.1L1320.8,387.5L1321.1,385.9L1323.6,386.6L1324.9,387.4L1325.5,388.4Z M1328.8,387.3L1328.2,388.1L1325.3,384.7L1324.5,382.4L1325.8,382.4L1327.2,385.5L1328.8,387.3Z M1183.9,389.4L1180.6,390.3L1180.1,389.8L1180.5,388.5L1182.1,386.1L1186.0,384.6L1186.4,383.7L1189.8,382.8L1192.5,382.7L1193.7,382.2L1195.2,382.7L1193.8,383.7L1189.7,385.4L1186.5,386.5L1183.9,389.4Z M1158.5,381.5L1159.9,382.5L1162.3,382.2L1163.3,383.9L1158.8,384.6L1156.1,385.2L1154.0,385.1L1155.3,382.9L1157.5,382.9L1158.5,381.5Z M1178.0,381.5L1177.4,383.6L1171.5,384.7L1166.4,384.3L1166.4,382.8L1169.4,382.0L1171.9,383.2L1174.5,382.9L1178.0,381.5Z M1321.7,382.4L1321.9,383.2L1318.9,381.6L1316.7,380.2L1315.3,378.9L1315.8,378.5L1317.6,379.4L1320.8,381.2L1321.7,382.4Z M1312.6,378.6L1311.9,378.8L1310.2,377.9L1308.6,376.3L1308.8,375.7L1311.1,377.3L1312.6,378.6Z M1122.4,376.4L1129.9,376.7L1130.7,375.1L1137.9,377.0L1139.4,379.5L1145.2,380.2L1150.0,382.6L1145.5,384.0L1141.3,382.5L1137.7,382.6L1133.7,382.3L1130.1,381.6L1125.6,380.1L1122.7,379.7L1121.1,380.2L1114.0,378.6L1113.3,376.9L1109.8,376.6L1112.4,372.9L1117.1,373.2L1120.3,374.7L1121.9,375.0L1122.4,376.4Z M1223.9,374.2L1221.9,376.8L1221.5,373.9L1222.2,372.5L1223.1,371.2L1223.9,372.3L1223.9,374.2Z M1306.2,376.5L1305.1,376.9L1303.4,375.4L1301.7,372.9L1300.9,370.0L1301.4,369.6L1301.8,370.8L1303.0,371.6L1304.9,374.1L1306.7,375.4L1306.2,376.5Z M1291.0,371.3L1289.0,371.6L1288.4,372.7L1286.3,373.7L1284.3,374.6L1282.2,374.6L1279.0,373.4L1276.8,372.3L1277.1,371.1L1280.6,371.7L1282.7,371.4L1283.3,369.5L1283.9,369.4L1284.3,371.5L1286.5,371.2L1287.6,369.9L1289.7,368.5L1289.3,366.2L1291.6,366.1L1292.4,366.8L1292.4,368.9L1291.0,371.3Z M1194.9,363.5L1193.4,364.7L1190.7,364.0L1190.0,362.4L1193.9,362.2L1194.9,363.5Z M1207.4,362.0L1208.8,365.0L1205.5,363.4L1202.3,363.1L1200.1,363.3L1197.4,363.2L1198.3,361.1L1203.1,360.9L1207.4,362.0Z M1295.5,367.5L1294.3,368.5L1293.6,366.2L1292.7,364.7L1290.9,363.5L1288.7,361.8L1285.9,360.7L1287.0,359.7L1289.1,360.8L1290.4,361.7L1292.0,362.6L1293.6,364.2L1295.1,365.5L1295.5,367.5Z M1221.7,354.5L1222.8,360.8L1226.8,363.1L1230.0,359.0L1234.5,356.6L1237.9,356.6L1241.3,358.0L1244.2,359.4L1248.3,360.1L1255.1,362.8L1262.3,365.0L1265.0,367.0L1267.1,369.0L1267.7,371.3L1274.2,373.7L1275.1,375.7L1271.6,376.1L1272.4,378.7L1275.9,381.3L1278.4,385.4L1280.6,385.3L1280.5,387.0L1283.5,387.7L1282.3,388.4L1286.5,390.0L1286.0,391.2L1283.4,391.4L1282.5,390.4L1279.1,390.0L1275.2,389.4L1272.2,386.9L1270.0,384.8L1268.0,381.4L1262.9,379.7L1259.6,380.8L1257.2,382.1L1257.7,384.9L1254.7,386.3L1252.5,385.6L1248.5,385.5L1245.0,382.3L1241.1,381.5L1240.1,382.6L1235.2,382.7L1236.8,379.5L1239.3,378.5L1238.3,374.2L1236.4,371.0L1228.8,367.7L1225.6,367.4L1219.8,363.8L1218.7,365.7L1217.2,366.0L1216.3,364.6L1216.3,362.9L1213.3,361.0L1217.5,359.6L1220.3,359.6L1219.9,358.6L1214.2,358.6L1212.7,356.3L1209.2,355.6L1207.6,353.6L1212.8,352.7L1214.8,351.4L1221.1,353.0L1221.7,354.5Z M1187.0,344.5L1183.9,348.3L1181.0,349.1L1177.3,348.3L1170.8,348.5L1167.4,349.1L1166.8,352.0L1170.3,355.5L1172.4,353.7L1179.7,352.4L1179.3,354.2L1177.6,353.6L1176.0,355.9L1172.5,357.4L1176.2,362.4L1175.5,363.7L1179.0,368.2L1179.0,370.8L1176.9,371.9L1175.4,370.5L1177.2,367.4L1173.4,368.9L1172.5,367.8L1173.0,366.3L1170.2,364.0L1170.4,360.2L1167.9,361.4L1168.2,365.9L1168.3,371.5L1165.9,372.1L1164.2,370.9L1165.3,367.3L1164.7,363.6L1163.1,363.6L1161.9,360.9L1163.5,358.3L1164.0,355.3L1166.0,349.4L1166.8,347.8L1170.1,344.9L1173.1,346.1L1178.1,346.6L1182.5,346.4L1186.4,343.6L1187.0,344.5Z M1200.5,345.6L1200.3,349.0L1198.2,348.6L1197.7,351.0L1199.3,353.0L1198.2,353.5L1196.6,351.0L1195.4,346.1L1196.2,343.0L1197.5,341.5L1197.8,343.7L1200.1,344.0L1200.5,345.6Z M1111.5,372.8L1107.2,372.8L1103.9,369.6L1098.9,366.4L1097.3,364.1L1094.3,360.9L1092.4,358.0L1089.4,352.5L1086.0,349.3L1084.9,345.9L1083.4,342.9L1079.9,340.5L1077.9,337.1L1075.0,335.0L1070.9,330.7L1070.6,328.7L1073.1,328.8L1079.1,329.6L1082.5,333.4L1085.6,336.0L1087.7,337.7L1091.4,341.8L1095.3,341.9L1098.6,344.6L1100.9,347.8L1103.8,349.6L1102.3,352.8L1104.5,354.1L1105.9,354.2L1106.5,356.9L1107.9,359.1L1110.8,359.4L1112.6,361.9L1111.7,366.7L1111.5,372.8Z M1158.4,342.9L1162.8,346.5L1158.2,347.0L1156.9,349.6L1157.0,353.1L1153.3,355.8L1153.2,359.7L1151.7,365.6L1151.1,364.2L1146.7,366.0L1145.2,363.6L1142.4,363.4L1140.4,362.1L1135.8,363.5L1134.4,361.6L1131.9,361.9L1128.6,361.4L1128.1,356.2L1126.1,355.1L1124.2,351.8L1123.7,348.4L1124.2,344.8L1126.5,342.2L1129.3,343.5L1132.3,342.8L1133.1,339.5L1134.8,338.8L1139.4,337.9L1142.2,334.9L1144.1,332.4L1145.7,330.9L1149.0,328.8L1152.0,326.1L1153.9,323.1L1155.5,323.1L1157.5,325.0L1157.7,326.7L1160.2,327.8L1163.5,329.0L1163.2,330.5L1160.6,330.7L1161.3,332.6L1158.4,333.9L1156.2,337.4L1159.1,341.1L1158.4,342.9Z M1191.5,317.3L1191.9,319.9L1192.1,322.0L1190.8,325.6L1189.3,321.6L1187.5,323.6L1188.8,326.5L1187.7,328.3L1183.1,326.0L1182.0,323.2L1183.2,321.4L1180.7,319.5L1179.5,321.1L1177.7,321.0L1174.8,323.2L1174.1,322.0L1175.7,318.8L1178.1,317.7L1180.2,316.2L1181.6,318.0L1184.6,316.9L1185.2,315.2L1187.9,315.1L1187.7,312.0L1190.9,313.9L1191.2,315.8L1191.5,317.3Z M1015.8,325.9L1012.5,326.8L1010.6,323.7L1009.9,318.1L1011.7,311.8L1014.4,314.0L1016.2,316.7L1018.1,320.7L1017.5,324.8L1015.8,325.9Z M463.0,310.7L459.8,311.1L459.1,310.8L460.2,309.7L460.1,308.2L462.4,307.6L463.2,307.8L463.0,310.7Z M1182.2,310.0L1180.8,311.3L1179.5,313.8L1178.3,314.9L1175.9,312.2L1176.7,311.2L1177.7,310.1L1178.1,307.7L1180.3,307.5L1179.6,310.1L1182.5,306.3L1182.2,310.0Z M1160.9,313.8L1155.7,317.5L1157.6,314.7L1160.4,312.3L1162.7,309.6L1164.8,305.8L1165.5,309.0L1162.9,311.1L1160.9,313.8Z M1174.0,303.8L1176.3,305.0L1178.8,305.0L1178.7,306.6L1176.9,308.2L1174.5,309.4L1174.3,307.6L1174.6,305.6L1174.0,303.8Z M1188.1,302.7L1189.2,307.0L1186.2,306.0L1186.2,307.3L1187.2,309.7L1185.3,310.6L1185.2,307.9L1184.0,307.7L1183.4,305.3L1185.7,305.6L1185.6,304.1L1183.3,301.2L1187.0,301.2L1188.1,302.7Z M1172.6,299.2L1171.6,302.5L1169.9,300.6L1167.9,297.6L1171.3,297.8L1172.6,299.2Z M1171.8,278.0L1174.2,279.2L1175.4,278.1L1175.8,279.1L1175.1,280.7L1176.4,283.5L1175.4,286.8L1173.1,288.0L1172.5,291.2L1173.4,294.3L1175.5,294.7L1177.2,294.2L1182.0,296.4L1181.7,298.5L1182.9,299.5L1182.5,301.2L1179.5,299.3L1178.1,297.3L1177.1,298.7L1174.6,296.4L1171.0,297.0L1169.1,296.1L1169.3,294.5L1170.5,293.5L1169.4,292.6L1168.9,294.0L1166.9,291.8L1166.4,290.1L1166.2,286.4L1167.8,287.6L1168.2,281.6L1169.5,278.0L1171.8,278.0Z M444.9,279.1L443.9,280.1L441.0,280.1L438.7,280.2L438.5,278.5L439.1,278.0L442.2,278.0L444.2,278.3L444.9,279.1Z M400.9,280.5L399.8,281.2L397.6,280.5L395.4,279.1L395.8,278.2L397.5,278.0L398.3,278.1L401.0,278.4L403.0,279.4L403.7,280.4L400.9,280.5Z M417.7,272.7L421.1,273.3L421.6,272.7L424.6,272.7L426.9,273.7L428.0,273.6L428.7,275.0L430.8,274.9L430.7,276.1L432.4,276.2L434.3,277.6L432.9,279.2L431.0,278.4L429.2,278.5L428.0,278.3L427.3,279.0L425.8,279.3L425.2,278.3L423.9,278.9L422.3,281.6L421.3,280.9L421.1,279.8L418.6,279.2L416.7,279.4L414.3,279.2L412.5,279.9L410.4,278.7L410.8,277.4L414.4,278.0L417.3,278.3L418.7,277.4L416.9,275.7L417.0,274.2L414.5,273.6L415.4,272.6L417.7,272.7Z M1129.1,277.4L1125.7,279.2L1122.5,278.0L1122.4,274.7L1124.4,272.9L1128.6,271.8L1130.8,271.9L1131.7,273.4L1130.0,275.1L1129.1,277.4Z M95.1,275.8L94.5,276.4L93.6,275.9L93.7,274.8L93.0,273.4L93.2,272.9L93.9,272.3L93.6,271.5L93.9,271.2L94.2,271.3L95.7,271.9L96.3,272.2L97.0,272.8L98.0,274.1L97.9,274.3L96.4,275.2L95.1,275.8Z M93.0,269.7L91.7,270.0L91.1,269.2L90.6,268.9L90.6,268.6L91.0,268.3L92.3,268.7L93.4,269.3L93.0,269.7Z M90.4,267.6L90.3,268.1L88.2,268.0L88.5,267.5L90.4,267.6Z M86.9,267.1L86.7,267.3L86.4,267.3L85.1,267.1L84.6,266.2L84.4,266.1L85.5,265.5L85.8,265.8L86.9,267.1Z M80.3,264.5L79.9,264.9L78.6,264.2L78.8,263.9L79.3,263.5L80.2,263.6L80.3,264.5Z M390.1,261.5L391.7,262.9L395.3,262.5L396.7,263.4L400.0,265.8L402.4,267.5L403.7,267.5L406.0,268.3L405.7,269.4L408.6,269.5L411.5,271.1L411.1,272.0L408.5,272.5L405.9,272.7L403.2,272.4L397.6,272.8L400.2,270.6L398.6,269.6L396.1,269.3L394.8,268.2L393.9,266.0L391.7,266.2L388.0,265.1L386.9,264.3L381.8,263.7L380.5,262.9L381.9,262.0L378.1,261.8L375.3,263.8L373.7,263.8L373.1,264.8L371.2,265.2L369.5,264.8L371.6,263.6L372.4,262.2L374.2,261.4L376.2,260.6L379.1,260.2L380.1,259.8L383.4,260.1L386.5,260.1L390.1,261.5Z M398.5,257.6L397.5,257.8L396.5,255.6L395.1,254.4L395.9,252.0L397.1,252.1L398.5,255.3L398.5,257.6Z M1171.2,261.4L1169.6,264.6L1167.5,261.3L1167.1,258.4L1169.4,254.6L1172.5,251.6L1174.3,252.8L1173.6,255.1L1171.2,261.4Z M397.4,246.6L393.1,247.3L392.9,245.8L394.7,245.5L397.2,245.6L397.4,246.6Z M400.6,246.6L399.9,249.4L399.2,248.9L399.2,246.8L397.5,245.3L397.5,244.8L400.6,246.6Z M1223.6,217.2L1224.1,218.5L1221.9,220.9L1220.3,219.6L1218.3,220.5L1217.3,222.8L1214.7,221.7L1214.8,219.9L1216.9,217.5L1219.1,218.0L1220.7,216.4L1223.6,217.2Z M834.5,211.3L831.8,212.9L832.1,213.7L832.2,214.0L828.3,215.6L826.4,215.0L825.4,213.5L827.3,213.3L827.6,213.3L828.1,212.4L830.9,212.4L834.5,211.3Z M792.2,211.1L794.3,212.5L797.3,212.2L800.2,212.5L800.1,213.2L802.2,212.7L801.8,213.9L796.2,214.2L796.2,213.6L791.4,212.8L792.2,211.1Z M760.4,201.3L759.0,204.4L759.5,205.6L758.7,207.6L755.7,206.1L753.8,205.7L748.3,203.7L748.9,201.7L753.4,202.1L757.4,201.7L760.4,201.3Z M735.8,189.7L738.1,192.5L737.6,197.6L735.8,197.4L734.2,198.7L732.8,197.7L732.6,193.0L731.7,190.7L733.9,190.9L735.8,189.7Z M1248.2,205.6L1246.8,208.7L1247.5,210.6L1245.4,213.4L1240.5,215.2L1233.6,215.4L1228.1,219.9L1225.5,218.4L1225.3,215.5L1218.5,216.3L1213.9,218.1L1209.4,218.2L1213.3,221.1L1210.7,227.7L1208.2,229.3L1206.3,227.8L1207.3,224.3L1204.8,223.2L1203.3,220.5L1206.9,219.3L1209.0,216.9L1212.9,214.9L1215.7,212.2L1223.5,211.0L1227.6,211.8L1231.7,204.9L1234.3,206.8L1240.0,202.9L1242.2,201.4L1244.7,196.6L1244.0,192.3L1245.6,189.8L1249.8,189.1L1251.9,194.5L1251.8,197.6L1248.2,201.5L1248.2,205.6Z M737.2,186.1L735.9,189.1L734.1,188.3L733.2,185.7L734.0,184.2L736.5,182.7L737.2,186.1Z M1259.7,178.2L1262.4,179.0L1265.1,177.4L1266.0,181.8L1260.2,182.8L1256.8,186.7L1250.7,184.0L1248.6,188.3L1244.3,188.3L1243.7,184.5L1245.7,181.5L1249.8,181.3L1250.9,175.9L1252.1,172.9L1256.7,176.9L1259.7,178.2Z M452.4,169.0L455.2,169.5L458.8,169.4L456.9,171.0L455.5,171.2L450.6,169.6L449.6,168.3L451.1,167.1L452.4,169.0Z M459.6,159.0L457.7,159.1L452.7,157.9L449.1,156.0L450.4,155.7L455.6,156.7L459.5,158.3L459.6,159.0Z M219.7,161.3L217.7,161.9L211.3,160.1L210.2,158.7L206.7,157.4L206.0,156.3L202.0,155.6L200.5,153.5L200.8,152.6L204.9,153.4L207.3,154.0L211.0,154.4L212.3,155.7L214.2,157.6L218.1,159.2L219.7,161.3Z M481.7,152.9L479.1,156.3L481.7,155.0L484.3,155.8L482.9,157.2L486.4,158.2L488.2,157.3L492.0,158.5L490.8,161.3L493.6,160.7L494.0,162.7L495.3,165.1L493.6,168.6L491.9,168.7L489.3,168.0L490.1,164.8L489.1,164.3L484.6,167.7L482.2,167.5L485.0,165.7L481.2,164.8L477.1,165.0L469.5,164.9L468.9,163.7L471.3,162.4L469.7,161.3L472.9,159.0L476.9,152.8L479.3,150.5L482.7,149.2L484.5,149.4L483.8,150.4L481.7,152.9Z M183.9,139.8L183.9,139.8L183.9,139.8L183.9,139.8L187.6,139.5L186.5,143.9L189.9,147.1L188.3,147.1L186.0,145.3L184.5,143.5L182.6,142.3L181.8,140.6L182.1,139.3L183.9,139.8Z M1258.6,152.6L1262.5,159.5L1256.8,158.3L1254.4,163.9L1258.2,167.9L1258.1,170.6L1255.1,168.2L1252.6,171.2L1251.9,168.0L1252.3,164.2L1251.9,160.0L1252.8,157.1L1252.9,151.9L1250.6,148.0L1251.0,142.7L1254.6,140.9L1253.0,139.1L1254.8,138.6L1255.8,141.1L1257.1,144.9L1257.0,148.7L1258.6,152.6Z M673.6,146.8L666.7,149.1L661.2,148.5L664.4,144.4L662.3,140.5L667.6,137.4L670.6,135.6L673.8,135.4L678.0,137.8L675.9,140.5L676.5,143.3L673.6,146.8Z M749.4,133.7L747.0,136.9L742.9,134.7L742.4,133.1L748.1,131.8L749.4,133.7Z M105.0,127.9L101.1,129.4L99.1,128.4L98.5,126.5L102.0,125.2L104.1,124.6L106.7,124.8L108.3,126.0L105.0,127.9Z M688.3,122.0L684.2,126.2L688.1,125.6L692.4,125.7L691.4,128.8L687.9,132.3L691.9,132.6L695.7,137.6L698.3,138.2L700.7,142.6L701.8,144.2L706.5,144.9L706.1,147.4L704.1,148.5L705.6,150.5L702.1,152.6L696.9,152.5L690.3,153.6L688.5,152.8L685.9,154.7L682.3,154.2L679.6,155.7L677.5,154.9L683.2,150.8L686.7,150.0L680.6,149.4L679.5,147.8L683.6,146.6L681.4,144.5L682.2,142.0L688.0,142.3L688.5,140.1L685.9,137.6L681.2,136.9L680.2,135.9L681.6,134.1L680.4,133.1L678.3,134.9L678.0,131.2L676.1,129.2L677.5,125.1L680.5,122.0L683.6,122.3L688.3,122.0Z M56.1,117.0L53.7,117.6L51.1,116.9L48.8,115.8L52.6,115.2L55.7,115.5L56.1,117.0Z M391.7,108.3L390.2,110.3L388.5,110.0L387.5,108.8L387.7,108.6L389.2,107.4L390.8,107.5L391.7,108.3Z M381.5,106.1L377.0,108.3L374.2,108.2L373.4,107.1L376.2,105.3L381.6,105.4L381.5,106.1Z M32.2,102.0L34.6,102.7L37.0,102.3L40.1,103.3L44.0,103.8L43.7,104.3L40.7,105.1L37.8,104.2L36.3,103.5L32.8,103.8L31.9,103.4L32.2,102.0Z M368.8,94.7L369.5,96.4L371.5,95.8L373.8,96.8L378.0,98.1L382.5,99.3L382.8,101.2L385.7,100.9L388.5,102.2L385.0,103.4L379.0,102.5L376.8,100.7L372.9,102.8L367.4,104.8L366.1,102.5L360.8,102.9L364.2,101.0L364.7,97.9L366.0,94.3L368.8,94.7Z M643.6,91.6L642.7,94.1L647.1,96.7L642.0,99.7L630.8,102.4L627.4,103.1L622.3,102.5L611.5,101.3L615.3,99.5L606.8,97.6L613.7,96.9L613.6,95.7L605.4,94.8L608.0,92.3L613.9,91.7L620.0,94.4L625.9,92.3L630.8,93.4L637.1,91.3L643.6,91.6Z M405.0,88.9L400.6,89.1L399.6,87.2L401.3,85.0L404.9,84.4L407.9,85.5L407.9,87.2L407.5,87.7L405.0,88.9Z M19.4,91.1L22.0,92.0L21.1,89.2L31.7,89.8L39.3,93.4L35.4,95.1L29.0,95.5L29.0,99.3L27.4,100.1L23.8,100.0L20.8,98.7L15.6,97.5L14.7,95.8L10.8,95.2L6.4,95.7L4.3,94.3L5.1,92.9L0.5,93.8L2.2,95.7L0.0,97.3L0.0,81.8L9.5,84.8L19.7,88.6L19.4,91.1Z M328.0,81.2L325.6,82.6L320.4,81.4L317.2,81.9L311.9,80.1L315.3,78.9L318.0,77.2L322.2,78.3L324.5,79.0L325.7,79.8L328.0,81.2Z M1400.0,74.5L1395.7,74.7L1395.0,73.5L1400.0,71.9L1400.0,74.5Z M5.1,74.3L0.0,74.5L0.0,71.9L0.5,71.7L3.8,71.7L9.4,72.8L9.1,73.4L5.1,74.3Z M347.9,79.7L347.9,83.7L353.1,80.7L357.7,83.2L356.5,86.0L360.3,88.7L364.4,85.9L367.2,82.5L367.4,78.2L372.9,78.5L378.7,79.1L383.9,81.0L384.1,83.0L381.2,85.0L384.0,87.1L383.5,89.0L375.9,91.7L370.5,92.3L366.5,91.2L365.3,93.1L361.5,96.4L360.4,98.1L355.9,100.7L350.3,101.0L347.3,102.6L347.0,105.2L342.5,105.6L337.7,108.8L333.5,113.2L332.0,116.2L331.8,120.8L337.5,121.4L339.2,125.0L341.1,128.0L346.5,127.2L353.7,128.9L357.6,130.4L360.4,132.2L365.3,133.3L369.4,134.9L375.8,135.2L380.1,135.5L379.4,138.9L380.6,142.8L383.4,147.2L389.2,150.9L392.2,149.6L394.3,145.6L392.3,139.4L389.6,137.4L395.8,135.6L400.2,132.9L402.3,130.1L402.0,127.5L399.4,124.2L394.7,121.3L399.2,117.2L397.6,113.7L396.3,107.6L399.0,106.7L405.6,107.8L409.6,108.2L412.8,107.2L416.5,108.5L421.3,110.7L422.4,112.2L429.4,112.5L429.3,115.8L430.5,120.7L434.1,121.3L436.9,123.6L442.5,121.5L446.3,117.2L448.8,115.4L451.9,118.8L456.9,123.8L461.2,128.5L459.7,130.9L464.8,133.1L468.3,135.3L474.5,136.3L477.0,137.6L478.6,140.9L481.6,141.4L483.2,142.8L483.5,147.2L480.6,148.7L477.8,150.0L471.4,151.4L466.5,154.6L460.0,155.2L451.6,154.4L445.8,154.4L441.8,154.7L438.5,157.5L433.6,159.2L428.0,164.3L423.5,167.9L426.8,167.3L433.0,162.2L441.2,158.9L447.0,158.5L450.4,160.4L446.8,163.1L448.0,167.2L449.3,170.2L454.3,172.1L460.8,171.6L464.7,167.2L464.9,170.0L467.4,171.4L462.6,174.0L454.0,176.3L450.2,177.9L445.8,180.7L442.9,180.4L442.7,177.1L449.5,173.9L443.2,174.0L438.9,174.5L439.6,175.7L435.4,177.6L431.4,179.0L427.3,180.1L425.1,182.7L424.6,183.3L424.6,185.4L425.9,187.4L427.5,187.5L427.1,186.1L428.2,187.0L427.9,188.1L425.3,188.7L423.4,188.6L420.5,189.3L418.9,189.5L416.6,189.7L413.3,190.8L419.1,190.1L420.2,190.8L414.8,192.0L412.3,192.0L412.4,191.5L411.2,192.6L412.4,192.8L411.5,195.6L408.7,198.6L408.4,197.6L407.6,197.4L406.3,196.4L407.1,198.5L408.0,199.2L408.1,200.7L406.9,202.2L404.7,205.3L404.3,205.1L405.5,202.5L403.5,201.0L403.1,197.7L402.3,199.4L403.2,201.9L400.7,201.3L403.3,202.5L403.4,206.2L404.6,206.5L405.0,207.9L405.5,211.7L403.0,214.6L399.0,215.8L396.5,218.1L394.5,218.3L392.5,219.7L392.0,221.1L387.7,223.6L385.5,225.4L383.7,227.7L383.1,230.5L383.8,233.2L385.1,236.5L386.8,239.3L386.8,241.0L388.7,245.5L388.5,248.1L388.4,249.6L387.4,252.0L386.2,252.5L384.3,252.0L383.7,250.3L382.2,249.4L380.2,246.0L378.4,243.1L377.8,241.6L378.6,239.0L377.5,236.8L374.5,233.6L372.9,233.0L369.0,234.7L368.3,234.6L366.4,232.7L364.0,231.8L359.6,232.3L356.2,231.8L353.2,232.1L351.5,232.6L352.3,233.7L352.2,235.3L353.0,236.1L352.3,236.6L350.9,236.0L349.4,236.8L346.6,236.6L343.7,234.6L340.3,235.1L337.5,234.2L335.0,234.4L331.8,235.4L328.2,238.2L324.4,239.9L322.2,241.8L321.3,243.5L321.3,246.2L321.5,248.1L322.2,249.4L322.2,249.4L322.2,249.4L320.7,252.8L320.0,255.6L319.8,260.8L319.4,262.7L320.1,264.8L321.3,266.7L322.0,269.8L324.6,272.6L325.5,274.9L327.1,276.8L331.2,277.8L332.8,279.4L336.2,278.4L339.2,278.0L342.1,277.3L344.5,276.6L347.0,275.0L347.9,272.7L348.2,269.5L348.9,268.3L351.6,267.3L355.7,266.4L359.1,266.5L361.5,266.2L362.4,267.0L362.3,268.9L360.2,271.2L359.3,273.6L360.0,274.3L359.4,276.0L358.4,279.0L357.4,278.0L356.6,278.1L356.6,278.6L357.4,278.6L357.3,279.7L356.7,281.4L357.0,282.0L356.6,283.4L356.8,283.7L356.4,285.7L355.6,286.7L354.9,286.9L354.2,288.2L355.4,288.9L355.8,288.3L356.9,288.8L357.3,289.0L358.2,288.3L359.3,288.2L359.6,288.6L360.2,288.4L362.0,288.7L363.8,288.6L365.1,288.2L365.5,287.8L366.8,288.0L367.7,288.2L368.7,288.1L369.5,287.8L371.3,288.3L371.9,288.4L373.1,289.1L374.2,290.0L375.6,290.6L376.6,291.7L376.3,292.1L376.1,292.9L376.5,294.3L375.6,295.7L375.2,297.2L375.1,299.0L375.3,300.0L375.4,301.7L374.8,302.1L374.4,303.7L374.7,304.8L373.9,305.8L374.1,306.8L374.7,307.5L375.7,309.6L377.2,311.1L379.0,312.8L380.4,314.2L380.3,315.0L381.9,315.2L382.2,314.9L383.3,315.8L385.2,315.6L386.9,314.6L389.2,313.8L390.5,312.6L392.7,312.8L392.6,313.2L394.7,313.4L396.4,314.0L397.7,315.2L399.2,316.3L401.2,316.4L404.1,313.7L405.7,313.3L405.7,312.0L406.5,308.7L408.7,306.9L411.1,306.8L411.5,306.0L414.5,306.3L417.6,304.4L419.1,303.5L421.0,301.6L422.3,301.9L423.4,302.9L422.6,304.2L422.5,305.1L420.2,305.6L421.5,307.3L421.4,309.4L419.7,311.6L421.2,314.7L422.9,314.5L423.7,311.7L422.5,310.3L422.3,307.3L427.2,305.8L426.6,303.9L428.0,302.7L429.4,305.4L432.1,305.5L434.6,307.7L434.8,309.0L438.3,309.0L442.4,308.6L444.7,310.3L447.6,310.8L449.8,309.6L449.9,308.6L454.7,308.4L459.4,308.3L456.0,309.5L457.4,311.3L460.5,311.6L463.4,313.5L464.1,316.6L466.1,316.5L467.6,317.5L470.2,318.9L472.6,321.4L472.7,323.4L474.1,323.5L476.2,325.4L477.8,326.8L482.4,327.5L482.8,326.8L486.0,326.6L490.2,327.6L491.5,328.0L494.3,329.0L498.5,332.2L499.1,333.8L500.4,333.7L501.4,335.8L503.6,342.6L505.7,343.2L505.8,345.9L502.8,349.1L504.0,350.3L510.9,350.9L511.1,354.8L514.0,352.3L518.9,353.7L525.4,356.0L527.3,358.3L526.6,360.5L531.1,359.3L538.7,361.3L544.5,361.2L550.3,364.4L555.2,368.7L558.2,369.9L561.6,370.0L563.0,371.3L564.3,376.2L564.9,378.6L563.4,385.0L561.4,387.5L555.9,392.9L553.5,397.3L550.6,400.7L549.6,400.8L548.5,403.6L548.8,410.9L547.7,416.9L547.3,419.5L546.1,421.0L545.4,426.2L541.4,431.3L540.8,435.3L537.6,437.0L536.7,439.3L532.5,439.3L526.4,440.8L523.6,442.5L519.3,443.7L514.7,446.8L511.4,450.6L510.8,453.5L511.5,455.7L510.8,459.6L509.9,461.5L507.2,463.7L502.8,470.5L499.4,473.6L496.8,475.4L495.0,479.1L492.4,481.3L490.8,483.8L486.4,485.9L483.5,485.1L481.4,485.6L477.8,483.9L475.2,484.0L472.8,481.9L472.5,483.9L477.5,487.2L476.9,489.9L479.4,491.6L479.2,493.5L475.4,498.5L469.7,500.6L461.9,501.4L457.6,501.0L458.4,503.3L457.6,506.2L458.3,508.2L456.0,509.6L452.0,510.1L448.3,508.7L446.8,509.7L447.3,513.6L449.9,514.7L452.1,513.5L453.2,515.5L449.6,516.7L446.5,519.1L445.9,523.1L445.0,525.1L441.4,525.2L438.3,527.1L437.2,530.1L441.0,532.9L444.7,533.7L443.4,537.2L438.8,539.4L436.3,543.9L432.7,545.5L431.1,547.3L432.4,551.3L435.0,553.6L433.3,553.4L429.9,553.4L428.0,554.3L424.5,555.7L423.9,559.4L422.2,559.4L417.8,558.2L413.4,555.5L408.5,553.2L407.3,550.8L408.4,548.5L406.5,545.9L406.0,539.3L407.6,535.5L411.7,532.5L405.8,531.4L409.5,528.0L410.9,521.5L415.2,522.9L417.2,514.8L414.6,513.8L413.4,518.6L410.9,518.1L412.2,512.5L413.5,505.3L415.3,502.7L414.1,498.9L413.8,494.5L415.5,494.4L417.8,488.1L420.5,481.9L422.2,476.1L421.3,470.2L422.5,467.0L422.0,462.2L424.3,457.5L425.0,450.0L426.2,441.9L427.4,433.2L427.1,426.8L426.3,421.4L422.4,419.1L422.1,417.5L414.4,413.6L407.4,409.4L404.4,407.0L402.8,403.8L403.4,402.6L400.1,397.5L396.3,390.4L392.6,382.6L391.0,380.8L389.8,378.0L386.8,375.4L384.0,373.9L385.3,372.1L383.4,368.4L384.6,365.7L387.7,363.2L389.8,360.3L388.9,358.6L387.5,360.4L385.1,358.7L385.9,357.6L385.3,354.1L386.6,353.5L387.3,351.1L388.8,348.6L388.5,347.0L390.7,346.2L393.3,344.6L392.8,343.4L394.3,343.1L394.1,341.2L395.0,339.8L396.9,339.5L398.6,337.1L400.1,335.0L398.6,334.1L399.4,331.8L398.5,328.3L399.3,327.3L398.7,324.0L397.1,321.9L395.8,320.8L395.0,318.7L396.0,317.6L395.0,317.4L394.2,316.1L392.3,315.0L390.6,315.3L389.8,316.6L388.2,317.6L387.4,317.7L387.0,318.5L388.9,320.6L387.8,321.1L387.3,321.7L385.4,321.9L384.8,319.6L384.3,320.3L383.0,320.0L382.2,318.5L380.6,318.2L379.6,317.8L377.9,317.8L377.8,318.6L377.4,318.0L375.2,317.2L374.5,316.3L374.9,315.7L374.8,314.8L373.7,313.9L372.2,313.1L370.8,312.6L370.6,311.5L369.5,310.8L369.8,311.9L369.0,312.8L368.1,311.8L366.9,311.4L366.3,310.6L366.4,309.4L366.9,308.2L365.8,307.6L366.7,306.9L365.3,305.7L363.5,304.1L362.7,302.8L361.0,301.6L359.1,299.8L359.5,299.2L360.1,299.8L360.4,299.5L359.8,298.3L358.6,297.9L358.2,298.9L355.9,298.8L354.5,298.4L352.9,297.7L350.7,297.4L349.6,296.6L347.6,295.9L345.2,295.8L343.4,295.1L341.3,293.5L336.9,289.3L334.9,288.0L331.8,287.0L329.6,287.3L326.5,288.7L324.5,289.1L321.8,288.1L318.8,287.4L315.2,285.6L312.3,285.0L307.9,283.2L304.6,281.4L303.7,280.3L301.5,280.1L297.5,278.9L295.9,277.1L291.7,274.9L289.7,272.4L288.8,270.5L290.1,270.2L289.7,269.0L290.6,268.0L290.6,266.7L289.3,264.9L289.0,263.4L287.7,261.4L284.2,257.6L280.3,254.5L278.4,252.1L275.1,250.5L274.4,249.6L275.0,247.2L273.0,246.3L270.7,244.4L269.7,241.7L267.6,241.3L265.4,239.3L263.6,237.4L263.4,236.2L261.3,233.3L259.9,230.3L260.0,228.8L257.2,227.2L255.9,227.4L253.6,226.3L253.0,227.9L253.7,229.8L254.0,232.7L255.4,234.3L258.3,237.0L258.9,237.9L259.5,238.2L260.0,239.5L260.7,239.5L261.5,242.0L262.7,243.0L263.5,244.3L265.9,246.3L267.2,249.9L268.4,251.6L269.5,253.5L269.7,255.5L271.6,255.6L273.1,257.4L274.5,259.1L274.4,259.8L272.8,261.3L272.1,261.2L271.1,258.9L268.5,256.7L265.7,254.8L263.7,253.8L263.9,250.9L263.3,248.8L261.4,247.6L258.7,245.9L258.2,246.4L257.3,245.4L254.9,244.4L252.6,242.2L252.8,241.9L254.4,242.1L255.9,240.7L256.0,238.9L253.0,236.1L250.8,235.1L249.3,232.6L247.9,230.1L246.1,227.0L244.5,223.5L243.8,221.5L241.3,219.3L239.5,218.8L239.1,217.7L236.9,217.5L235.5,216.4L231.9,216.0L230.9,215.4L230.4,213.3L226.7,209.4L223.4,204.0L223.6,203.1L221.8,201.8L218.8,198.5L218.3,195.4L216.2,193.2L217.1,190.0L216.9,186.7L215.7,183.7L217.2,180.0L218.2,173.0L217.5,167.7L216.2,164.4L215.1,162.6L215.6,161.9L221.2,163.2L223.3,166.8L224.2,165.8L223.6,162.6L222.3,159.4L221.8,159.4L214.2,155.6L211.5,153.9L204.4,152.3L202.3,148.9L202.8,146.5L197.8,144.8L197.1,141.7L192.4,138.9L192.4,136.9L190.2,135.4L186.8,134.2L185.7,130.8L180.7,127.6L178.6,124.0L174.9,123.7L168.7,123.6L164.1,122.5L156.1,118.5L152.3,117.7L145.5,116.3L140.2,116.7L132.5,114.9L127.9,113.2L123.6,114.0L124.4,116.8L122.2,117.0L117.7,117.8L114.3,119.1L110.0,119.9L109.4,117.7L111.2,113.8L115.3,112.6L114.3,111.7L109.3,113.8L106.6,116.4L101.0,119.2L103.9,121.1L100.2,123.9L96.0,125.5L92.1,126.7L91.2,128.4L85.1,130.4L83.9,132.2L79.3,133.9L76.7,133.6L73.0,134.7L69.1,136.0L65.8,137.3L59.2,138.4L58.6,137.8L62.8,136.0L66.6,134.8L70.8,132.6L75.6,132.2L77.5,130.6L82.9,128.3L83.8,127.5L86.6,126.1L87.3,123.2L89.3,120.9L84.8,122.0L83.5,121.4L81.4,122.8L78.9,120.8L77.9,122.2L76.4,120.3L72.5,121.8L70.1,121.8L69.8,119.5L70.5,118.1L68.0,116.7L62.9,117.5L59.6,115.6L57.0,114.7L57.0,112.5L54.0,110.8L55.5,108.6L58.6,106.4L60.0,104.4L63.2,104.1L65.8,104.8L69.0,102.9L71.8,103.2L74.8,102.0L74.1,100.2L71.9,99.5L74.8,98.0L72.4,98.1L68.2,98.9L67.1,99.8L64.0,98.9L58.5,99.4L52.8,98.4L51.2,96.9L46.2,94.6L51.7,93.0L60.4,91.1L63.6,91.1L63.0,93.0L71.3,92.9L68.1,90.5L63.3,89.0L60.5,87.0L56.8,85.4L51.5,84.2L53.6,82.1L60.5,82.0L65.5,80.2L66.4,78.3L70.4,76.5L74.1,76.0L81.5,74.3L85.1,74.6L91.1,72.5L97.0,73.3L99.8,75.1L101.5,74.3L108.1,74.5L107.8,75.4L113.8,76.1L117.8,75.7L125.9,76.9L133.4,77.3L136.4,77.8L141.6,77.2L147.5,78.4L151.7,78.9L159.0,79.8L165.1,81.7L169.2,82.1L172.6,80.4L177.3,79.2L183.1,79.7L188.9,78.0L195.2,77.0L197.9,78.6L200.8,77.7L201.7,75.9L204.4,76.3L210.9,79.8L216.1,77.2L216.7,80.1L221.4,79.5L222.9,78.3L227.6,78.6L233.6,80.2L242.7,81.6L248.0,82.3L251.8,82.0L257.1,84.0L251.6,85.9L258.6,86.8L269.1,86.3L272.4,85.6L276.6,88.0L280.8,86.0L276.8,84.3L279.3,83.0L284.1,82.8L287.2,82.4L290.3,83.4L294.2,85.5L298.6,85.2L305.5,86.9L311.5,86.3L317.2,86.4L316.7,84.0L320.2,83.3L326.2,84.6L326.2,88.3L328.7,85.2L331.8,85.3L333.5,81.4L329.4,79.0L324.8,77.4L325.1,73.1L329.7,70.3L334.9,70.9L338.8,72.6L344.1,77.0L340.6,78.9L347.9,79.7Z M256.0,65.6L254.1,67.5L262.7,66.3L268.1,68.2L272.5,66.3L276.1,67.5L279.3,71.4L281.2,69.7L278.5,65.8L281.9,65.2L285.7,65.8L290.1,67.4L292.5,71.2L293.7,73.9L300.3,75.8L307.3,77.7L306.9,79.4L300.5,79.7L303.0,81.2L301.7,82.6L294.6,82.0L287.9,81.0L283.4,81.2L276.1,82.5L264.6,83.2L259.3,83.5L257.2,81.6L251.9,80.6L248.5,81.0L243.7,77.9L246.3,77.5L252.3,76.9L257.8,77.0L262.8,76.4L255.3,75.4L247.0,75.8L241.5,75.7L239.4,74.2L248.4,72.7L242.5,72.7L235.7,71.7L238.9,68.8L241.6,67.3L252.0,64.9L256.0,65.6Z M293.6,64.5L290.2,67.0L284.1,64.3L285.4,63.8L290.7,63.6L293.6,64.5Z M403.1,65.7L403.5,66.8L399.3,66.7L395.1,66.6L390.9,67.1L389.8,66.9L385.5,64.8L385.6,63.4L387.5,63.2L396.4,63.6L403.1,65.7Z M363.4,65.5L366.4,67.9L370.0,64.8L379.9,63.2L386.6,67.2L386.0,69.8L393.7,68.6L397.3,67.1L406.0,69.1L411.3,70.9L411.8,72.6L419.1,71.7L423.1,74.2L432.5,75.7L435.9,77.3L439.6,80.9L432.4,82.8L441.6,85.3L447.8,86.1L453.3,89.7L459.5,90.0L458.3,92.7L451.4,97.2L446.6,95.6L440.5,91.8L435.5,92.3L435.0,94.5L439.1,96.8L444.4,98.6L446.0,99.6L448.5,103.5L447.2,106.3L442.3,105.2L432.5,102.1L438.0,105.5L442.1,107.8L442.7,109.2L432.1,107.6L423.8,105.3L419.1,103.5L420.4,102.4L414.6,100.4L409.0,98.5L409.0,99.6L397.8,100.2L394.5,98.9L397.1,96.0L404.4,96.0L412.4,95.5L411.1,94.1L412.4,92.1L417.5,88.3L416.4,86.6L414.9,85.3L408.9,83.4L401.1,82.1L403.6,81.1L399.4,78.7L396.0,78.5L392.9,77.1L390.9,78.3L383.8,78.8L369.7,77.9L361.4,76.8L355.1,76.2L351.9,74.8L356.0,73.0L350.4,73.0L349.2,69.1L352.2,65.6L356.2,64.0L366.2,63.0L363.4,65.5Z M309.7,62.8L314.4,63.6L321.3,63.2L322.3,64.3L318.7,66.1L324.6,67.8L323.9,71.3L317.5,72.8L313.7,72.5L311.1,71.0L301.4,68.0L301.5,66.8L309.4,67.3L305.1,64.7L309.7,62.8Z M1258.5,65.3L1252.6,65.3L1244.6,64.9L1243.9,64.7L1247.6,63.1L1252.5,62.8L1258.0,64.3L1258.5,65.3Z M337.6,67.0L333.4,69.9L329.0,69.8L326.5,66.3L326.6,64.4L328.6,62.8L332.5,61.7L340.6,61.8L348.0,62.8L342.2,66.2L337.6,67.0Z M231.5,72.3L221.3,74.3L219.3,72.6L210.3,70.5L211.6,69.2L214.6,66.0L218.0,63.5L214.2,61.1L227.4,60.5L232.9,61.3L242.8,61.5L246.6,62.6L250.8,64.3L245.9,65.2L236.4,68.0L231.5,70.7L231.5,72.3Z M1286.2,58.0L1281.7,59.5L1275.5,59.2L1268.2,57.7L1269.2,56.4L1276.4,57.0L1286.2,58.0Z M336.0,58.4L333.8,59.9L328.2,59.6L323.5,58.6L325.5,56.9L331.1,55.8L334.5,57.2L336.0,58.4Z M1264.2,56.1L1261.2,59.0L1246.8,58.9L1240.4,59.8L1232.7,57.3L1234.8,54.6L1239.9,53.9L1250.2,54.1L1264.2,56.1Z M316.9,51.6L319.9,53.4L320.0,55.4L318.3,58.3L311.9,58.7L307.7,58.1L307.8,55.8L301.4,56.1L301.1,53.1L305.3,53.3L311.2,51.9L316.6,52.2L316.9,51.6Z M279.2,53.7L280.7,55.0L284.2,54.4L288.2,54.6L288.9,56.5L286.6,58.3L273.4,58.9L263.6,60.6L257.7,60.7L257.2,59.4L265.2,57.7L247.7,58.2L242.2,57.5L247.5,53.7L251.2,52.6L262.1,53.9L269.1,56.2L275.9,56.5L270.3,52.8L273.9,51.4L277.9,51.8L279.2,53.7Z M923.7,75.0L921.5,75.3L908.7,74.8L907.7,73.1L900.7,72.0L900.1,69.9L904.1,69.1L903.9,67.0L911.7,63.7L908.1,63.2L917.4,59.8L916.3,58.0L925.0,56.0L937.9,53.5L950.8,52.7L957.5,51.3L965.1,50.8L967.8,52.3L965.1,53.5L951.4,55.5L939.5,57.3L927.4,61.0L921.6,64.8L915.5,68.6L916.3,71.8L923.7,75.0Z M331.8,50.2L336.1,51.4L343.8,51.4L347.1,52.7L346.2,54.2L350.7,55.0L353.2,56.0L358.4,56.1L364.1,56.5L370.3,55.6L378.2,55.3L384.5,55.6L388.7,57.0L389.5,58.6L387.1,59.7L381.3,60.5L376.3,60.0L365.2,60.6L357.2,60.7L350.9,60.2L340.6,59.0L339.2,56.8L338.8,54.9L334.9,53.2L326.8,52.7L322.3,51.5L323.8,49.9L331.8,50.2Z M248.1,48.0L247.6,51.0L244.6,52.4L241.0,52.6L233.7,54.2L227.5,54.8L222.2,54.0L222.2,54.0L228.8,51.1L236.8,48.6L242.8,48.6L248.1,48.0Z M1116.0,50.7L1117.0,52.6L1120.6,51.6L1132.0,51.7L1140.7,53.6L1143.9,55.0L1142.9,57.1L1138.6,58.2L1128.4,60.4L1125.4,61.5L1130.3,62.1L1136.0,63.0L1139.5,62.3L1141.5,64.8L1143.2,63.8L1149.4,63.2L1161.9,63.8L1162.9,65.6L1179.1,66.2L1179.3,63.3L1187.6,63.9L1193.8,63.9L1200.1,66.0L1201.9,68.4L1199.6,70.1L1204.5,73.1L1210.6,74.7L1214.3,70.6L1220.6,72.4L1227.2,71.3L1234.7,72.5L1237.6,71.4L1243.9,72.0L1241.1,68.4L1246.3,66.7L1281.4,69.2L1284.7,71.5L1294.9,74.5L1310.6,73.8L1318.3,74.4L1321.6,76.0L1321.1,78.9L1325.9,80.0L1331.1,79.2L1338.0,79.1L1345.3,79.8L1352.7,79.4L1359.5,82.9L1364.3,81.6L1361.1,79.1L1362.9,77.4L1375.3,78.5L1383.4,78.3L1394.6,80.1L1400.0,81.8L1400.0,97.3L1400.0,97.3L1395.0,99.0L1389.9,98.7L1393.4,100.8L1395.8,104.0L1397.6,105.1L1398.0,106.7L1397.0,107.7L1389.8,106.9L1378.9,109.8L1375.4,110.2L1369.5,113.0L1363.8,115.4L1362.4,117.1L1356.8,114.4L1346.7,117.5L1344.9,116.0L1341.2,117.7L1336.0,117.2L1334.7,119.7L1330.1,123.5L1330.2,125.1L1334.6,125.9L1334.1,131.6L1330.5,131.7L1328.8,135.0L1330.5,136.7L1323.7,138.7L1322.3,143.1L1316.5,144.0L1315.3,148.0L1309.7,151.6L1308.3,148.9L1306.6,143.3L1304.5,134.6L1306.3,129.2L1309.6,126.9L1309.8,125.1L1315.9,124.2L1322.8,119.3L1329.5,115.3L1336.5,112.2L1339.6,106.7L1334.9,107.1L1332.6,110.3L1322.7,114.5L1319.5,109.8L1309.5,111.1L1299.7,117.6L1302.9,120.0L1294.3,121.0L1288.3,121.4L1288.5,118.6L1282.5,118.0L1277.7,119.9L1265.8,119.2L1253.0,120.4L1240.4,128.0L1225.5,137.2L1231.6,137.7L1233.5,140.1L1237.3,141.0L1239.8,139.0L1244.1,139.3L1249.7,143.5L1249.8,146.8L1246.8,150.7L1246.4,155.4L1244.7,161.6L1238.8,167.2L1237.5,169.9L1232.2,174.4L1227.0,178.9L1224.5,181.2L1219.3,183.5L1216.9,183.6L1214.4,181.7L1209.2,184.5L1208.6,185.8L1207.1,185.6L1205.4,186.9L1204.3,188.2L1204.4,191.0L1202.4,191.9L1201.7,192.6L1200.2,193.7L1197.7,194.3L1196.0,195.4L1195.8,197.1L1195.4,197.5L1196.9,198.1L1199.1,199.8L1202.5,204.4L1203.5,206.9L1203.5,211.4L1202.0,213.6L1198.5,214.3L1195.4,215.9L1191.9,216.3L1191.5,214.1L1192.2,211.2L1190.5,207.2L1193.3,206.5L1190.7,203.2L1188.8,202.5L1188.3,203.2L1187.2,203.5L1187.0,202.8L1186.0,202.4L1185.0,201.8L1186.1,200.1L1187.0,199.6L1186.6,198.9L1187.6,196.8L1187.4,196.2L1185.1,195.8L1183.3,194.7L1177.8,195.9L1175.0,197.7L1170.8,198.7L1172.8,196.9L1172.0,195.4L1175.1,192.8L1173.0,190.8L1169.7,192.1L1165.3,194.8L1162.9,197.4L1159.1,197.5L1157.1,199.4L1159.1,202.0L1162.3,202.6L1162.4,204.4L1165.5,205.5L1169.9,202.7L1173.3,204.2L1175.8,204.3L1176.5,206.4L1171.0,207.5L1169.1,209.6L1165.4,211.5L1163.4,214.2L1167.6,216.4L1169.1,220.2L1171.4,223.8L1174.1,226.8L1174.0,229.6L1171.6,230.7L1172.5,232.8L1174.8,234.0L1174.2,237.2L1173.2,240.2L1171.0,240.6L1168.2,244.8L1165.1,249.9L1161.4,254.5L1156.1,258.1L1150.7,261.4L1146.3,261.8L1143.9,263.6L1142.6,262.3L1140.4,264.2L1134.9,266.2L1130.8,266.8L1129.5,270.9L1127.3,271.1L1126.3,268.3L1127.3,266.8L1122.0,265.6L1120.2,266.2L1115.0,269.5L1111.8,273.2L1110.9,275.9L1113.9,280.0L1117.5,285.1L1121.0,287.5L1123.4,290.6L1125.2,297.8L1124.7,304.6L1121.4,307.2L1117.0,309.7L1113.8,312.9L1108.9,316.6L1107.5,314.1L1108.6,311.4L1105.7,309.2L1102.5,308.7L1100.9,306.6L1098.9,302.6L1095.4,300.8L1092.1,300.9L1092.7,297.8L1089.3,297.9L1089.0,302.1L1086.9,307.8L1085.6,311.3L1085.9,314.1L1088.4,314.2L1090.0,317.7L1090.7,321.1L1092.8,323.3L1095.2,323.8L1097.2,325.8L1098.1,326.2L1100.4,328.5L1102.0,331.1L1102.3,333.7L1101.8,335.5L1102.2,336.8L1102.5,339.1L1103.9,340.2L1105.4,343.7L1105.3,345.0L1102.6,345.2L1098.9,342.4L1094.3,339.3L1093.8,337.3L1091.6,334.7L1091.1,331.5L1089.7,329.3L1090.1,326.5L1089.2,324.9L1087.7,323.4L1087.0,321.4L1085.0,319.2L1083.1,317.4L1082.4,319.7L1081.7,317.5L1082.1,315.1L1083.3,311.4L1082.9,308.5L1084.1,305.5L1082.8,303.2L1083.1,299.0L1081.5,297.0L1080.2,292.3L1079.5,287.4L1077.9,284.2L1075.3,286.1L1070.9,288.9L1068.7,288.5L1066.3,287.6L1067.6,282.8L1066.8,279.2L1063.8,274.7L1064.2,273.3L1062.0,272.8L1059.2,269.6L1058.1,267.6L1057.9,265.6L1057.1,263.7L1055.5,261.5L1051.9,261.3L1052.3,262.9L1051.1,265.1L1049.4,264.3L1048.8,265.0L1047.7,264.6L1046.2,264.2L1045.7,265.6L1043.0,265.6L1038.2,266.4L1038.5,269.3L1036.4,271.6L1030.8,274.2L1026.4,278.8L1023.5,281.3L1019.6,283.8L1019.6,285.6L1017.7,286.6L1014.2,288.0L1012.4,288.2L1011.2,291.1L1012.0,296.2L1012.2,299.4L1010.6,303.1L1010.6,309.7L1008.5,309.9L1006.8,312.9L1008.0,314.2L1004.4,315.3L1003.1,317.9L1001.5,319.0L997.9,315.4L996.1,309.9L994.6,306.0L993.2,304.2L991.1,300.4L990.2,295.6L989.5,293.2L986.0,287.8L984.4,280.3L983.2,275.3L983.2,270.6L982.5,266.9L976.8,269.3L974.1,268.8L969.0,264.1L970.8,262.7L969.7,261.2L965.1,257.9L962.3,256.9L961.1,254.1L958.1,251.1L951.0,251.9L944.6,251.9L939.2,252.5L931.8,251.3L927.6,250.4L923.2,249.9L921.6,245.1L919.7,244.4L916.7,245.1L912.8,247.0L908.0,245.7L904.1,242.7L900.4,241.6L897.8,237.9L894.9,232.8L892.8,233.4L890.3,232.1L888.9,233.6L886.6,233.4L887.4,235.1L887.0,236.0L888.3,239.0L889.8,242.3L891.7,243.2L892.4,244.6L895.0,246.2L895.3,247.8L894.9,249.1L895.4,250.4L896.5,251.5L897.0,252.8L897.6,253.7L897.3,250.9L898.4,248.9L899.4,248.4L900.6,249.7L900.7,251.9L899.8,254.2L900.6,255.7L901.3,255.5L901.4,256.6L904.5,256.0L907.7,256.1L910.0,256.2L912.7,253.6L915.6,251.1L918.1,248.7L919.2,247.3L919.7,247.7L919.3,249.3L918.8,250.0L919.3,253.1L921.1,255.7L923.2,257.1L926.1,257.6L928.4,258.4L930.1,260.6L931.2,261.9L932.6,262.4L932.6,263.2L931.2,265.6L930.5,266.6L928.9,267.9L927.5,270.6L925.7,270.3L924.9,271.3L924.3,273.2L924.7,275.8L924.4,276.3L922.6,276.3L920.1,277.8L919.8,279.7L918.9,280.5L916.5,280.5L914.9,281.4L915.0,283.0L913.1,284.1L910.9,283.7L908.3,285.0L906.5,285.2L903.7,286.3L903.0,288.0L902.9,289.3L899.0,291.0L892.8,292.8L889.3,295.5L887.6,295.8L886.4,295.5L884.2,297.1L881.7,297.9L878.4,298.1L877.4,298.3L876.6,299.3L875.6,299.6L875.0,300.6L873.0,300.5L871.8,301.1L869.1,300.9L868.1,298.6L868.2,296.5L867.6,295.3L866.8,292.4L865.7,290.8L866.5,290.6L866.1,288.9L866.5,288.1L866.4,286.4L865.9,284.8L864.7,283.6L864.4,282.0L862.4,280.6L860.3,277.4L859.2,274.2L856.5,271.5L854.8,270.9L852.2,267.2L851.8,264.5L851.9,262.2L849.7,257.9L847.9,256.4L845.8,255.6L844.5,253.3L844.7,252.4L843.6,250.4L842.5,249.6L841.0,246.7L838.6,243.5L836.6,240.9L834.7,240.9L835.3,238.7L835.5,237.4L835.9,235.8L835.8,235.3L834.7,236.8L833.9,239.8L832.8,241.8L831.9,242.5L830.6,241.2L828.9,239.5L826.1,233.9L825.7,234.3L827.3,238.4L829.7,242.3L832.6,248.3L834.1,250.4L835.3,252.6L838.8,257.0L838.0,257.6L838.2,260.2L842.7,263.6L843.4,264.4L844.6,268.3L843.8,269.0L844.3,273.0L845.8,277.6L847.2,278.6L849.4,280.0L851.6,284.5L852.7,288.1L854.8,290.0L860.1,293.6L862.3,295.9L864.4,298.1L865.6,299.4L867.5,300.6L868.5,301.8L868.3,303.4L866.1,304.4L867.8,305.4L869.1,306.1L869.8,307.7L871.6,309.4L873.5,309.4L877.2,308.4L881.4,307.9L884.8,306.7L886.8,306.5L888.1,305.8L890.4,305.6L891.6,305.5L893.4,305.0L895.5,304.6L897.3,303.2L898.8,303.2L898.9,304.3L898.5,306.6L898.5,308.6L897.7,310.0L896.6,314.2L894.7,318.6L892.3,323.5L889.0,329.2L885.7,333.6L881.1,338.9L877.2,342.0L871.4,345.9L867.8,348.9L863.5,353.6L862.6,355.6L861.7,356.5L859.0,358.1L858.0,359.7L856.6,360.0L856.0,362.7L854.8,364.3L854.0,366.9L852.5,368.2L850.7,373.0L850.9,375.2L853.4,376.6L853.5,377.6L852.4,380.0L852.6,381.1L852.4,383.0L853.8,385.4L855.4,389.3L856.8,390.1L857.4,391.9L857.3,395.7L857.7,399.2L857.9,405.2L858.6,407.1L857.4,409.9L855.9,412.6L853.4,415.0L849.9,416.5L845.5,418.4L841.1,422.6L839.6,423.3L836.9,426.0L835.3,426.9L835.0,429.7L836.8,432.7L837.6,434.9L837.6,436.1L838.3,435.9L838.2,439.7L837.6,441.5L838.5,442.2L837.9,443.8L836.3,445.2L833.1,446.5L828.4,448.6L826.7,450.1L827.0,451.7L828.0,452.0L827.7,454.0L826.7,456.8L826.2,460.1L825.2,461.8L822.6,463.8L821.8,464.3L820.2,466.3L819.1,468.3L816.9,471.1L812.5,475.1L809.7,477.4L806.8,479.2L802.7,480.7L800.8,480.9L800.3,482.0L797.9,481.4L796.0,482.2L791.8,481.4L789.4,481.9L787.8,481.7L783.8,483.2L780.5,483.8L778.1,485.3L776.3,485.4L774.6,484.0L773.3,483.9L771.7,482.2L771.5,482.8L771.0,481.7L771.0,479.4L769.7,476.8L771.0,476.1L770.9,473.1L768.3,469.5L766.4,466.2L766.4,466.2L763.6,461.1L760.7,458.2L759.2,455.4L758.3,451.6L757.3,448.8L756.0,442.8L755.9,438.1L755.4,436.0L753.9,434.4L751.9,431.2L749.9,426.5L749.0,424.1L745.9,420.3L745.6,417.3L745.3,414.8L745.8,411.4L747.1,407.9L747.4,406.2L748.6,402.7L749.5,401.1L751.8,398.5L753.0,396.8L753.4,393.9L753.2,391.7L752.1,390.3L751.0,388.0L750.1,385.6L750.3,384.8L751.5,383.3L750.3,379.5L749.5,376.9L747.6,374.5L747.9,373.7L747.4,372.5L746.3,369.6L743.1,365.5L739.1,361.5L736.6,358.3L734.2,354.3L734.3,353.0L735.2,351.8L736.1,349.0L736.9,346.1L736.2,345.5L737.5,341.1L738.1,338.0L736.6,335.5L734.8,334.8L734.0,333.1L733.0,332.5L733.1,331.4L729.0,332.8L727.5,332.6L726.0,333.5L722.9,333.4L720.9,331.0L719.6,328.2L716.8,325.6L713.9,325.7L710.5,325.7L707.3,326.1L704.1,326.9L698.0,329.2L695.9,330.6L692.4,331.7L688.9,330.6L687.1,330.6L684.4,329.9L681.9,329.9L677.3,330.6L674.6,331.7L670.8,333.1L670.0,333.0L669.0,333.1L665.0,331.2L661.4,328.2L658.1,326.1L655.5,323.6L654.5,323.3L651.7,321.8L649.6,319.7L649.0,318.3L648.5,315.4L646.8,313.1L645.3,311.6L644.3,311.1L643.3,310.3L642.9,308.6L642.3,307.7L641.2,307.1L639.1,305.4L637.4,305.2L636.6,304.1L636.6,303.5L635.4,302.7L635.1,301.8L634.5,298.9L635.0,297.1L633.4,294.1L631.5,292.7L633.2,292.0L635.1,289.2L636.0,287.3L635.6,285.2L636.7,283.2L637.2,279.6L636.8,275.7L636.3,273.8L636.7,271.9L635.7,270.0L633.6,268.3L633.8,266.7L634.0,264.9L635.5,263.8L636.8,261.8L636.5,260.5L637.8,257.7L640.0,255.3L641.3,254.6L642.3,252.4L642.4,250.3L643.8,247.9L646.4,246.5L648.9,242.5L650.9,241.0L654.5,240.5L657.6,237.9L659.6,236.8L662.8,233.6L661.8,228.8L663.3,225.4L663.8,223.4L666.3,220.7L670.2,219.0L673.1,217.3L675.7,213.3L676.9,210.9L679.8,211.0L682.1,212.6L685.8,212.3L689.9,213.2L691.6,213.2L695.3,211.1L699.5,210.4L702.0,208.8L705.7,207.6L712.3,207.0L718.7,206.6L720.7,207.2L724.4,205.7L728.5,205.7L730.1,206.6L732.7,206.3L737.0,204.7L739.7,205.2L739.6,207.2L742.9,205.8L743.2,206.5L741.2,208.4L741.2,210.2L742.5,211.2L742.0,214.5L739.5,216.5L740.2,218.6L742.2,218.7L743.2,220.5L744.7,221.1L749.2,222.5L750.9,222.1L754.1,222.8L759.3,224.5L761.1,228.0L764.6,228.7L770.1,230.4L774.2,232.3L776.1,231.3L778.0,229.5L777.1,226.5L778.3,224.6L781.1,222.8L783.8,222.3L789.0,223.1L790.4,224.8L791.8,224.8L793.1,225.5L796.9,225.9L797.9,227.2L803.0,227.2L806.8,228.2L810.6,229.3L812.4,229.9L815.4,228.7L817.0,227.6L820.5,227.3L823.2,227.8L824.3,229.7L825.2,228.4L828.3,229.4L831.3,229.6L833.3,228.6L834.4,227.3L834.1,227.1L835.1,225.3L835.9,222.3L836.5,221.4L836.6,221.3L838.0,218.1L839.9,215.4L840.0,215.3L839.6,212.3L840.6,210.7L839.2,208.9L840.6,207.5L838.3,207.8L835.0,206.9L832.3,209.1L826.4,209.6L823.3,207.5L819.1,207.4L818.2,209.0L815.5,209.4L811.7,207.4L807.5,207.4L805.2,203.6L802.3,201.4L804.2,198.4L801.8,196.5L806.1,192.8L812.1,192.7L813.7,189.7L821.1,190.2L825.8,187.7L830.3,186.6L836.8,186.5L843.6,189.3L849.1,190.8L853.7,190.2L857.0,190.5L861.6,188.5L862.2,186.8L861.2,184.2L859.0,182.7L856.8,182.3L855.4,181.1L850.4,177.8L846.0,176.3L842.6,174.0L845.5,173.4L848.7,170.2L846.5,168.6L852.2,167.0L852.1,166.2L848.6,166.8L845.5,167.1L843.0,168.4L839.3,168.6L836.0,170.0L836.2,172.5L838.1,173.4L842.1,173.2L841.3,174.6L837.0,175.2L831.8,177.5L829.6,176.7L830.5,174.9L826.2,173.7L826.9,173.0L830.6,171.7L829.5,170.8L823.4,169.8L823.2,168.4L819.6,168.8L818.1,171.0L815.1,173.9L815.2,174.9L813.3,175.7L812.1,175.3L811.1,180.0L809.0,181.6L807.6,184.4L808.9,186.6L809.3,188.1L812.7,189.4L812.0,190.3L807.4,190.6L805.7,191.8L802.5,193.9L801.3,192.0L801.3,191.2L799.0,191.1L796.9,190.8L792.2,191.8L794.9,194.0L792.9,194.6L790.8,194.6L788.7,192.6L788.0,193.4L788.9,195.8L790.8,197.6L789.3,198.4L791.5,200.2L793.4,201.4L793.5,203.6L789.9,202.5L791.0,204.5L788.6,204.9L790.0,208.4L787.5,208.4L784.3,206.7L782.8,203.6L782.1,201.0L780.6,199.2L778.6,197.0L778.4,195.9L777.7,195.6L777.6,194.8L775.5,193.5L775.1,191.6L775.5,189.0L776.0,187.8L775.3,187.1L774.5,186.8L773.4,185.6L771.8,184.8L768.1,183.4L765.8,182.0L762.3,180.8L759.0,177.9L759.8,177.7L758.0,176.0L758.0,174.7L755.5,174.1L754.3,175.8L753.1,174.5L753.2,173.1L753.3,173.1L754.2,172.7L751.1,172.1L747.9,173.5L748.2,175.4L747.7,176.6L749.0,178.5L752.6,180.5L754.6,183.7L758.9,186.8L761.9,186.8L762.9,187.7L761.8,188.5L765.3,189.9L768.1,191.0L771.5,193.1L771.9,193.8L771.1,195.2L769.0,193.4L765.6,192.7L764.0,195.2L766.8,196.7L766.3,198.7L764.7,198.9L762.6,202.3L761.0,202.6L761.0,201.4L761.8,199.3L762.6,198.5L761.1,196.2L759.9,194.3L758.3,193.8L757.2,192.1L754.7,191.4L753.0,189.8L750.1,189.6L747.1,187.8L743.5,185.3L740.9,183.0L739.7,179.2L737.7,178.7L734.6,177.5L732.8,178.0L730.5,179.8L728.9,180.1L725.4,182.3L717.7,181.2L712.1,182.5L711.6,184.8L711.8,187.1L708.1,189.7L703.2,190.5L702.8,191.8L700.4,194.0L698.9,197.1L700.4,199.4L698.2,201.1L697.3,203.6L694.4,204.4L691.7,207.4L686.7,207.4L683.0,207.4L680.6,208.7L679.1,210.2L677.2,209.9L675.7,208.6L674.6,206.3L671.0,205.7L669.5,206.7L667.4,206.2L665.4,206.6L666.0,203.6L665.6,201.2L663.9,200.8L663.0,199.4L663.3,196.8L664.8,195.4L665.1,193.8L665.9,191.5L665.8,189.8L665.0,188.4L664.9,187.1L665.1,184.4L663.5,182.7L669.0,179.9L673.7,180.6L679.0,180.5L683.1,181.2L686.3,181.0L692.6,181.1L694.6,178.8L695.4,171.1L691.3,167.0L688.5,165.0L682.5,163.5L682.1,160.7L687.2,159.8L693.7,160.8L692.5,156.4L696.2,158.1L705.2,155.1L706.4,151.9L709.8,151.1L712.9,150.3L714.9,149.3L718.3,143.5L723.6,141.9L726.9,142.0L727.6,141.2L730.9,141.0L731.6,141.8L734.2,139.9L733.3,138.5L733.2,136.3L731.6,134.1L731.5,130.1L732.1,129.1L733.2,127.9L736.7,127.7L738.0,126.6L741.1,125.5L741.0,127.5L739.9,128.8L740.3,129.8L742.4,130.4L741.5,131.9L740.3,131.5L737.5,134.3L738.6,136.2L738.7,137.7L742.6,138.6L742.5,140.0L746.5,139.2L748.7,138.2L753.1,139.7L754.9,140.9L757.6,139.8L763.6,138.0L768.5,136.7L772.4,137.3L772.7,138.3L776.5,138.3L777.3,136.6L782.7,135.4L781.9,132.1L782.0,129.2L783.9,126.7L787.6,125.4L790.7,128.3L793.8,128.2L794.6,125.2L795.0,123.0L793.6,123.4L791.1,122.1L790.8,119.8L795.7,118.7L800.6,118.2L804.8,118.8L808.8,118.7L813.2,116.6L809.2,114.7L802.1,115.0L795.3,116.4L788.9,117.3L786.7,115.1L782.9,113.9L783.8,110.0L781.9,106.5L783.8,104.3L787.3,101.8L796.2,97.6L798.8,96.8L798.4,95.1L793.0,93.3L786.3,94.4L782.5,97.1L783.1,99.5L776.9,102.6L769.4,106.0L766.6,111.5L769.3,114.2L773.1,116.3L769.5,120.7L765.4,121.6L764.0,128.2L761.8,131.8L757.0,131.4L754.8,134.5L750.3,134.7L749.1,131.0L745.8,126.6L742.9,121.1L740.3,118.7L732.6,123.2L727.4,124.1L722.0,122.2L720.6,118.0L719.4,109.0L723.0,106.5L733.3,103.2L740.9,99.2L748.1,93.8L757.4,86.3L763.9,83.4L774.6,78.5L783.1,76.8L789.5,77.0L795.5,73.8L802.6,73.9L809.5,73.2L821.7,76.0L816.7,77.1L820.9,79.5L825.0,78.1L831.3,80.5L842.0,81.4L856.7,85.8L859.7,87.7L859.9,90.3L855.6,92.3L849.3,93.3L831.9,90.4L829.1,90.9L835.4,93.7L835.9,99.5L840.9,100.7L843.9,101.7L844.4,99.8L842.0,98.1L844.6,96.7L854.0,99.1L857.3,98.1L854.6,95.3L863.7,91.5L867.3,91.7L870.9,93.1L873.2,90.4L869.9,88.1L871.8,85.7L869.0,83.3L879.9,84.6L882.1,86.8L877.2,87.2L877.2,89.4L880.2,90.7L886.3,89.9L887.2,87.4L895.3,85.6L908.9,82.2L911.8,82.4L908.0,84.8L912.8,85.2L915.6,83.8L922.9,83.7L928.7,82.1L933.1,84.5L937.5,81.9L933.5,79.6L935.5,78.4L947.0,79.5L952.3,80.8L966.4,85.2L969.0,83.2L965.1,81.1L965.0,80.3L960.3,79.9L961.6,78.1L959.5,75.0L959.4,73.8L966.5,70.3L969.1,66.7L972.0,66.0L982.3,67.0L983.1,69.1L979.4,72.3L981.8,73.5L983.1,76.3L982.2,81.6L986.5,84.0L984.8,86.6L977.2,92.1L981.6,92.7L983.2,91.3L987.5,90.3L988.5,88.3L991.9,86.5L989.6,84.3L991.4,81.7L987.2,81.4L986.2,79.2L989.3,75.3L984.3,72.2L991.2,69.5L990.3,66.8L992.3,66.7L994.3,68.8L992.8,72.6L997.0,73.3L995.2,70.5L1001.7,69.0L1009.8,68.8L1016.9,71.0L1013.5,67.7L1013.1,63.6L1019.9,62.8L1029.2,63.0L1037.6,62.5L1034.5,60.4L1039.0,57.9L1043.4,57.8L1051.0,55.8L1061.3,55.3L1062.6,54.3L1072.8,53.9L1076.0,54.8L1084.7,52.7L1091.8,52.8L1092.9,51.1L1096.6,49.4L1105.8,47.8L1112.5,49.1L1107.2,50.1L1116.0,50.7Z M891.0,189.5L893.0,192.2L894.8,192.4L896.0,193.4L892.8,193.8L892.1,196.8L891.4,198.1L890.0,199.1L890.1,201.0L891.3,203.8L895.0,204.7L897.7,206.6L903.2,207.3L909.3,206.2L909.7,205.3L909.0,202.6L909.5,198.5L906.5,197.2L907.5,194.5L904.9,194.3L905.8,191.0L909.4,192.0L912.9,190.7L910.0,188.4L908.9,186.2L905.8,187.2L905.4,190.0L904.2,187.5L904.0,186.6L904.9,184.9L904.2,183.6L899.7,182.3L897.9,178.8L895.8,177.8L895.6,176.5L899.4,176.9L899.6,174.0L902.9,173.4L906.3,174.0L907.0,170.2L906.3,167.8L902.4,168.0L899.1,167.0L894.6,168.7L890.9,169.6L889.2,171.9L885.4,172.5L881.5,176.5L885.1,180.2L884.7,182.8L888.9,187.4L891.0,189.5Z M335.1,48.5L333.3,48.6L326.0,48.4L325.0,47.3L332.8,47.4L335.5,48.1L335.1,48.5Z M271.5,47.8L264.2,49.0L258.5,47.7L261.6,46.5L267.3,46.1L272.8,46.7L271.5,47.8Z M796.1,47.2L787.5,48.8L780.6,47.9L783.3,46.9L780.9,45.7L789.0,44.9L790.5,46.4L796.1,47.2Z M273.5,44.3L268.8,45.1L262.3,45.1L262.4,44.5L266.4,43.4L268.5,43.5L273.5,44.3Z M327.3,46.4L321.6,47.2L318.4,46.3L316.7,44.9L316.4,43.3L321.5,43.4L323.7,43.7L328.4,45.0L327.3,46.4Z M310.9,45.4L312.4,47.0L306.0,46.6L299.6,45.3L291.0,45.2L294.7,44.0L290.0,43.1L289.8,41.6L297.4,42.1L307.9,43.6L310.9,45.4Z M1108.6,45.5L1086.7,47.0L1093.8,41.9L1097.0,41.4L1099.9,41.7L1109.8,43.9L1108.6,45.5Z M771.0,40.0L783.8,42.9L774.0,44.5L771.8,47.3L768.4,48.1L766.6,51.3L761.9,51.4L753.5,49.1L757.0,47.7L751.2,46.6L743.6,43.3L740.6,40.2L751.2,38.8L753.3,40.2L758.9,40.2L760.4,38.8L766.1,38.7L771.0,40.0Z M799.0,37.3L806.6,38.7L800.8,40.8L789.5,41.2L778.1,40.6L777.4,39.5L771.8,39.4L767.5,37.6L779.6,36.6L785.2,37.5L789.1,36.3L799.0,37.3Z M898.9,36.8L893.6,37.3L890.1,37.6L889.6,38.2L885.1,38.8L880.8,37.9L883.1,36.7L874.4,36.6L882.0,35.9L887.9,35.8L888.7,36.9L890.9,36.0L894.6,35.3L900.4,36.2L898.9,36.8Z M1088.7,43.2L1080.2,43.7L1069.3,42.6L1062.9,41.1L1059.9,38.3L1054.6,37.6L1064.7,34.9L1073.1,34.0L1080.7,36.0L1089.6,39.7L1088.7,43.2Z M361.6,40.2L366.3,41.5L360.9,42.6L353.8,45.5L346.9,45.8L338.8,45.3L334.6,43.7L334.7,42.3L337.8,41.3L330.7,41.3L326.4,40.0L323.9,38.3L326.6,36.5L329.3,35.4L333.3,35.1L331.6,34.2L340.6,34.0L345.6,36.1L352.1,36.9L358.5,37.6L361.6,40.2Z M433.6,26.8L444.0,27.1L452.4,27.6L459.5,28.7L459.3,29.7L449.8,31.4L440.4,32.2L436.9,33.1L445.4,33.0L436.2,35.4L429.8,36.5L423.2,39.7L415.2,40.3L412.7,41.1L400.9,41.5L406.3,42.0L403.6,42.7L406.8,44.6L403.1,46.0L397.1,47.1L395.3,48.6L389.8,49.7L390.4,50.6L397.0,50.5L397.1,51.4L386.7,53.8L376.5,52.7L365.1,53.3L359.3,52.8L352.0,52.6L351.5,50.7L358.7,49.9L356.8,47.1L359.1,46.8L369.5,48.5L364.2,46.0L357.9,45.2L361.1,43.7L368.0,42.8L369.1,41.4L363.6,39.9L361.9,37.9L372.6,38.1L375.6,38.5L381.7,37.1L372.9,36.6L359.3,36.9L352.5,35.6L349.2,34.0L344.7,32.8L343.8,31.5L349.6,30.8L354.2,30.7L361.8,30.0L367.5,28.6L372.3,28.8L376.5,29.9L379.5,27.8L384.6,27.1L391.6,26.7L403.5,26.6L405.5,27.0L416.8,26.3L425.2,26.6L433.6,26.8Z M594.6,25.2L618.9,28.3L611.8,29.8L596.9,30.0L575.9,30.3L577.9,31.0L591.7,30.6L603.4,31.9L610.9,30.7L614.2,32.1L609.9,34.4L619.8,33.0L638.7,31.5L650.3,32.2L652.5,33.9L636.7,36.6L634.5,37.5L622.0,38.2L631.0,38.4L626.5,41.2L623.4,43.7L623.5,48.1L628.2,50.6L622.1,50.8L615.7,52.0L622.9,54.1L623.8,57.4L619.6,57.7L624.7,61.1L616.0,61.4L620.5,62.9L619.3,64.3L613.8,64.9L608.4,64.9L613.2,67.6L613.3,69.3L605.6,67.7L603.6,68.7L608.8,69.7L613.9,72.1L615.4,75.2L608.5,75.9L605.5,74.4L600.7,72.2L602.0,74.9L597.5,76.9L607.7,77.1L613.1,77.3L602.7,80.7L592.1,83.7L580.7,85.1L576.4,85.1L572.4,86.6L567.0,90.7L558.6,93.4L555.9,93.6L550.8,94.5L545.2,95.4L541.8,97.8L541.8,100.6L539.8,103.1L533.5,106.2L535.0,109.3L533.3,112.5L531.3,116.3L525.8,116.5L520.1,113.3L512.3,113.3L508.5,111.2L505.9,107.4L499.2,102.6L497.2,100.0L496.7,96.5L491.3,92.9L492.7,90.1L490.1,88.7L494.0,84.2L499.8,82.7L501.4,81.1L502.2,78.1L497.7,79.4L495.6,80.0L492.1,80.6L487.3,79.3L487.1,76.7L488.6,74.6L492.2,74.5L500.1,75.6L493.5,73.1L490.0,71.8L486.1,72.3L482.9,71.3L487.2,67.7L484.8,66.3L481.8,63.6L477.1,59.5L472.1,57.9L472.2,56.3L461.7,54.0L453.5,53.8L443.1,53.9L433.6,54.2L429.1,53.0L422.3,50.5L432.5,49.3L440.4,49.1L423.7,48.1L415.0,46.5L415.5,45.0L430.2,43.1L444.5,41.2L446.0,39.8L435.5,38.4L438.9,36.9L452.3,34.2L458.0,33.8L456.4,32.0L465.6,31.0L477.5,30.4L489.5,30.3L493.7,31.5L504.0,29.4L513.3,30.9L518.8,31.2L526.9,32.4L517.6,30.3L518.1,28.7L531.2,26.3L544.8,26.5L549.8,25.1L563.5,24.7L594.6,25.2Z" fill="#ffffff" fill-opacity="0.07"/>
</svg>
